<?xml version="1.0" encoding="UTF-8"?>
<svg version="1.1" xmlns="http://www.w3.org/2000/svg" width="3200" height="2560">
<path d="M0 0 C2.5188439 0.00313349 5.03647848 -0.02027513 7.55517578 -0.0456543 C33.10429515 -0.14580471 57.57204372 4.9469573 78.84033203 19.58129883 C79.3995636 19.96574158 79.95879517 20.35018433 80.53497314 20.74627686 C83.38205637 22.71090759 86.21176274 24.69610587 89.02197266 26.71313477 C90.06546875 27.44822266 91.10896484 28.18331055 92.18408203 28.94067383 C93.59004639 29.95000977 93.59004639 29.95000977 95.02441406 30.97973633 C97.38978344 32.50965843 97.38978344 32.50965843 99.67919922 32.19067383 C101.72619575 31.23391384 103.18080897 30.18957546 104.87158203 28.69067383 C105.48445068 28.1532959 106.09731934 27.61591797 106.72875977 27.06225586 C107.37143799 26.48588379 108.01411621 25.90951172 108.67626953 25.31567383 C109.34279541 24.7277002 110.00932129 24.13972656 110.69604492 23.53393555 C112.65486335 21.80227104 114.60462985 20.06100801 116.55126953 18.31567383 C117.51677734 17.45200195 118.48228516 16.58833008 119.47705078 15.69848633 C122.58417549 12.90545665 125.68826395 10.1100659 128.76220703 7.28051758 C129.80248047 6.33885742 129.80248047 6.33885742 130.86376953 5.37817383 C131.45802734 4.83290039 132.05228516 4.28762695 132.66455078 3.72583008 C134.55126953 2.31567383 134.55126953 2.31567383 139.55126953 0.31567383 C139.55126953 43.87567383 139.55126953 87.43567383 139.55126953 132.31567383 C137.57126953 131.98567383 135.59126953 131.65567383 133.55126953 131.31567383 C133.22255859 129.9312207 133.22255859 129.9312207 132.88720703 128.51879883 C131.8236165 124.10509947 130.69389209 119.70948815 129.55126953 115.31567383 C129.35291504 114.5401416 129.15456055 113.76460937 128.95019531 112.96557617 C122.72060853 89.04336822 111.67879654 68.01730124 95.55126953 49.31567383 C94.71853516 48.33598633 93.88580078 47.35629883 93.02783203 46.34692383 C75.29198379 25.93999426 50.46869306 11.23413661 23.55126953 7.31567383 C7.41973825 6.40905676 -8.97928302 6.20199988 -24.44873047 11.31567383 C-25.43848877 11.63713379 -25.43848877 11.63713379 -26.44824219 11.96508789 C-35.66664253 15.06268683 -43.67860594 19.47088989 -51.44873047 25.31567383 C-52.19896484 25.8699707 -52.94919922 26.42426758 -53.72216797 26.99536133 C-62.10305973 33.70649687 -67.14591013 43.24124195 -70.44873047 53.31567383 C-70.67431641 53.98469727 -70.89990234 54.6537207 -71.13232422 55.34301758 C-75.28912973 70.27884979 -72.61078138 87.2280624 -65.26123047 100.62817383 C-54.86138187 117.01780864 -39.83371466 126.57425871 -22.44873047 134.31567383 C-21.71477051 134.64277344 -20.98081055 134.96987305 -20.22460938 135.30688477 C-0.4099139 143.97713572 20.42177206 149.31516346 41.34375 154.54394531 C138.55996234 178.84750854 138.55996234 178.84750854 160.55126953 214.31567383 C160.88126953 214.97567383 161.21126953 215.63567383 161.55126953 216.31567383 C161.56585205 215.31004395 161.58043457 214.30441406 161.59545898 213.26831055 C162.43771586 159.3695371 171.87146993 109.14938688 208.55126953 67.31567383 C209.27830078 66.47907227 210.00533203 65.6424707 210.75439453 64.78051758 C219.31841718 55.09358987 228.32633707 46.24197806 238.55126953 38.31567383 C239.09879883 37.88641602 239.64632813 37.4571582 240.21044922 37.01489258 C260.10999186 21.50643374 282.98775476 10.22328214 307.55126953 4.31567383 C308.20272949 4.15196289 308.85418945 3.98825195 309.52539062 3.81958008 C336.64863692 -2.67122398 369.31413814 -0.74661248 395.68310547 7.86523438 C398.89342586 8.86539551 401.04983694 9.44751904 404.34423828 8.58129883 C405.07255859 8.16364258 405.80087891 7.74598633 406.55126953 7.31567383 C407.14810547 6.97407227 407.74494141 6.6324707 408.35986328 6.28051758 C408.89740234 5.94149414 409.43494141 5.6024707 409.98876953 5.25317383 C416.88619009 1.27161561 425.45691138 1.52553454 433.11376953 3.00317383 C439.87314816 5.58402749 445.86126908 8.71793135 450.55126953 14.31567383 C450.55126953 14.97567383 450.55126953 15.63567383 450.55126953 16.31567383 C451.21126953 16.31567383 451.87126953 16.31567383 452.55126953 16.31567383 C452.55126953 17.30567383 452.55126953 18.29567383 452.55126953 19.31567383 C453.21126953 19.31567383 453.87126953 19.31567383 454.55126953 19.31567383 C454.55126953 20.63567383 454.55126953 21.95567383 454.55126953 23.31567383 C455.21126953 23.31567383 455.87126953 23.31567383 456.55126953 23.31567383 C456.88126953 25.29567383 457.21126953 27.27567383 457.55126953 29.31567383 C457.88126953 29.31567383 458.21126953 29.31567383 458.55126953 29.31567383 C458.55126953 33.60567383 458.55126953 37.89567383 458.55126953 42.31567383 C457.89126953 42.31567383 457.23126953 42.31567383 456.55126953 42.31567383 C456.61314453 44.20286133 456.61314453 44.20286133 456.67626953 46.12817383 C456.79030693 49.60631456 456.61052634 50.22678861 454.55126953 53.31567383 C453.89126953 53.31567383 453.23126953 53.31567383 452.55126953 53.31567383 C452.28314453 54.12004883 452.01501953 54.92442383 451.73876953 55.75317383 C451.15095703 57.02161133 451.15095703 57.02161133 450.55126953 58.31567383 C449.06626953 58.81067383 449.06626953 58.81067383 447.55126953 59.31567383 C447.55126953 59.97567383 447.55126953 60.63567383 447.55126953 61.31567383 C446.89126953 61.31567383 446.23126953 61.31567383 445.55126953 61.31567383 C445.55126953 61.97567383 445.55126953 62.63567383 445.55126953 63.31567383 C444.56126953 63.31567383 443.57126953 63.31567383 442.55126953 63.31567383 C442.55126953 63.97567383 442.55126953 64.63567383 442.55126953 65.31567383 C441.23126953 65.97567383 439.91126953 66.63567383 438.55126953 67.31567383 C440.03626953 66.82067383 440.03626953 66.82067383 441.55126953 66.31567383 C443.88426778 66.27613148 446.21835142 66.27165651 448.55126953 66.31567383 C448.55126953 65.65567383 448.55126953 64.99567383 448.55126953 64.31567383 C450.60205078 64.08780924 452.65283203 63.85994466 454.70361328 63.63208008 C456.56267182 63.49680769 456.56267182 63.49680769 457.55126953 62.31567383 C460.00215835 62.1885469 462.41237498 62.13046699 464.86376953 62.12817383 C465.87987305 62.10980469 465.87987305 62.10980469 466.91650391 62.09106445 C470.63568901 62.08015775 473.39471939 62.26269906 476.55126953 64.31567383 C476.55126953 64.97567383 476.55126953 65.63567383 476.55126953 66.31567383 C477.44845703 66.53223633 477.44845703 66.53223633 478.36376953 66.75317383 C480.11277358 67.20291773 481.83803976 67.74459724 483.55126953 68.31567383 C483.55126953 68.97567383 483.55126953 69.63567383 483.55126953 70.31567383 C484.41522339 70.50818726 484.41522339 70.50818726 485.29663086 70.70458984 C489.1427356 71.74701542 492.64296401 73.5587367 496.23876953 75.25317383 C497.41536133 75.79361328 497.41536133 75.79361328 498.61572266 76.3449707 C499.36144531 76.69495117 500.10716797 77.04493164 500.87548828 77.40551758 C501.55699951 77.72383545 502.23851074 78.04215332 502.94067383 78.37011719 C504.55126953 79.31567383 504.55126953 79.31567383 505.55126953 81.31567383 C507.45305738 81.91628616 507.45305738 81.91628616 509.55126953 82.31567383 C510.54126953 82.64567383 511.53126953 82.97567383 512.55126953 83.31567383 C512.55126953 83.97567383 512.55126953 84.63567383 512.55126953 85.31567383 C513.87126953 85.31567383 515.19126953 85.31567383 516.55126953 85.31567383 C516.55126953 85.97567383 516.55126953 86.63567383 516.55126953 87.31567383 C517.87126953 87.31567383 519.19126953 87.31567383 520.55126953 87.31567383 C520.55126953 87.97567383 520.55126953 88.63567383 520.55126953 89.31567383 C521.27314453 89.43942383 521.99501953 89.56317383 522.73876953 89.69067383 C525.50848848 90.30616693 527.94830493 91.20011757 530.55126953 92.31567383 C530.55126953 92.97567383 530.55126953 93.63567383 530.55126953 94.31567383 C531.44845703 94.53223633 531.44845703 94.53223633 532.36376953 94.75317383 C534.11277358 95.20291773 535.83803976 95.74459724 537.55126953 96.31567383 C537.55126953 96.97567383 537.55126953 97.63567383 537.55126953 98.31567383 C538.87126953 98.31567383 540.19126953 98.31567383 541.55126953 98.31567383 C541.55126953 98.97567383 541.55126953 99.63567383 541.55126953 100.31567383 C542.44845703 100.53223633 542.44845703 100.53223633 543.36376953 100.75317383 C545.11277358 101.20291773 546.83803976 101.74459724 548.55126953 102.31567383 C548.55126953 102.97567383 548.55126953 103.63567383 548.55126953 104.31567383 C549.06689453 104.41879883 549.58251953 104.52192383 550.11376953 104.62817383 C553.41153388 105.55831249 556.41760285 106.92962895 559.55126953 108.31567383 C559.55126953 108.97567383 559.55126953 109.63567383 559.55126953 110.31567383 C562.02626953 110.81067383 562.02626953 110.81067383 564.55126953 111.31567383 C564.55126953 113.95567383 564.55126953 116.59567383 564.55126953 119.31567383 C565.67146484 119.30407227 566.79166016 119.2924707 567.94580078 119.28051758 C569.41845536 119.27113761 570.89111175 119.26203763 572.36376953 119.25317383 C573.10175781 119.24479492 573.83974609 119.23641602 574.60009766 119.2277832 C577.85049021 119.21307554 580.44531848 119.28035681 583.55126953 120.31567383 C584.21126953 119.98567383 584.87126953 119.65567383 585.55126953 119.31567383 C586.90972146 119.2266489 588.27242928 119.19807251 589.63378906 119.20214844 C590.89486984 119.20226173 590.89486984 119.20226173 592.181427 119.20237732 C593.54399124 119.21011925 593.54399124 119.21011925 594.93408203 119.21801758 C595.86348602 119.21943253 596.79289001 119.22084747 597.75045776 119.2223053 C600.72576077 119.2279133 603.70098918 119.24046715 606.67626953 119.25317383 C608.69059136 119.2581878 610.70491437 119.26275088 612.71923828 119.2668457 C617.66327755 119.27788533 622.60726088 119.29515534 627.55126953 119.31567383 C627.54799652 118.74647217 627.54472351 118.17727051 627.54135132 117.59082031 C627.52825145 114.97827598 627.52019443 112.3657386 627.51220703 109.75317383 C627.50697021 108.85791992 627.5017334 107.96266602 627.49633789 107.0402832 C627.43356992 79.62323212 637.81914344 54.03026762 655.55126953 33.31567383 C656.19467285 32.54900391 656.19467285 32.54900391 656.85107422 31.7668457 C669.98007563 16.21447783 687.73823817 2.69884536 708.55126953 0.31567383 C713.4067703 0.00821679 718.24921701 -0.09005187 723.11376953 -0.12182617 C724.92373413 -0.13717407 724.92373413 -0.13717407 726.77026367 -0.15283203 C744.99669498 0.02405156 761.0964614 4.61088289 774.52001953 17.15551758 C783.00955586 25.95082111 784.8539407 37.4203161 784.8659668 49.22192383 C784.67416091 59.17313079 780.59431222 65.53896469 773.55126953 72.31567383 C765.9271551 78.84589358 758.26276832 79.87333615 748.47314453 79.62817383 C743.38689049 79.22289462 739.7835986 78.11970137 735.55126953 75.31567383 C734.91833984 74.90317383 734.28541016 74.49067383 733.63330078 74.06567383 C727.60276318 69.53955606 724.32070341 63.45955301 722.95361328 56.09692383 C722.00457762 46.75928557 722.74003217 38.98710792 728.06298828 31.10473633 C731.58788712 26.86745635 736.27142966 23.88535595 741.55126953 22.31567383 C742.87126953 22.31567383 744.19126953 22.31567383 745.55126953 22.31567383 C740.95929841 12.90246197 740.95929841 12.90246197 732.55126953 7.31567383 C720.53577838 6.20227517 708.66496208 6.45978069 698.67626953 13.94067383 C688.23951066 23.97793954 686.70176831 41.18458164 686.39305115 54.96656799 C686.37274328 56.63309843 686.3572773 58.29969294 686.34594727 59.96630859 C686.33109787 61.3435334 686.33109787 61.3435334 686.31594849 62.74858093 C686.28462836 65.75138871 686.25969401 68.75421224 686.23486328 71.75708008 C686.21426822 73.8517241 686.19327111 75.94636421 686.17189026 78.04100037 C686.11693304 83.53012908 686.06740852 89.01929366 686.01904297 94.50848389 C685.95975773 101.10743342 685.89367599 107.70631802 685.82874298 114.30521393 C685.73106544 124.3086606 685.64198255 134.31215066 685.55126953 144.31567383 C704.03126953 144.31567383 722.51126953 144.31567383 741.55126953 144.31567383 C741.55126953 147.61567383 741.55126953 150.91567383 741.55126953 154.31567383 C723.07126953 154.31567383 704.59126953 154.31567383 685.55126953 154.31567383 C685.65673348 182.76686311 685.76569441 211.21803044 685.88238647 239.66917573 C685.89615618 243.02749721 685.90988326 246.38581886 685.92358398 249.74414062 C685.92767644 250.74701986 685.92767644 250.74701986 685.93185157 251.77015928 C685.97593597 262.59820378 686.0165664 273.42625864 686.05592214 284.25432124 C686.09637649 295.36351293 686.14061172 306.47268567 686.18814808 317.5818494 C686.21473088 323.82227236 686.23958356 330.06269155 686.26034355 336.30313683 C686.27992864 342.17418505 686.30407814 348.04519663 686.33176041 353.91621208 C686.3411209 356.07331934 686.34879978 358.23043464 686.35468864 360.38755417 C686.36296679 363.32857469 686.3772484 366.26950669 686.39305115 369.210495 C686.39451831 370.49600731 686.39451831 370.49600731 686.39601511 371.80748957 C686.42349962 375.77487792 686.56827386 379.4428963 687.55126953 383.31567383 C690.02862367 383.96920897 692.50781428 384.61356984 694.98876953 385.25317383 C695.67648437 385.43557617 696.36419922 385.61797852 697.07275391 385.8059082 C707.46130808 388.46344532 717.95206482 388.58002092 728.61376953 388.87817383 C730.06625343 388.92146138 731.51872754 388.96507856 732.97119141 389.0090332 C736.49777944 389.11504636 740.02447888 389.21660131 743.55126953 389.31567383 C743.55126953 391.29567383 743.55126953 393.27567383 743.55126953 395.31567383 C686.79126953 395.31567383 630.03126953 395.31567383 571.55126953 395.31567383 C571.55126953 393.33567383 571.55126953 391.35567383 571.55126953 389.31567383 C572.7197644 389.29380005 572.7197644 389.29380005 573.91186523 389.27148438 C592.79485676 388.95211983 592.79485676 388.95211983 611.55126953 386.94067383 C612.30190674 386.8268335 613.05254395 386.71299316 613.82592773 386.59570312 C617.95509942 385.87622988 621.30670682 385.02345227 624.55126953 382.31567383 C626.32859337 378.01664995 626.80723735 374.33829222 626.82974243 369.70974731 C626.84090591 368.39730545 626.8520694 367.08486359 626.86357117 365.73265076 C626.86593577 364.29043608 626.86811148 362.84822108 626.87011719 361.40600586 C626.87942143 359.87804131 626.88959084 358.35008181 626.90055847 356.8221283 C626.92781664 352.68419653 626.94299546 348.54629873 626.9559865 344.40830088 C626.97163536 340.08009358 626.99841999 335.75195545 627.02401733 331.42379761 C627.07077405 323.23231024 627.1075332 315.04080982 627.14069021 306.84925735 C627.17893355 297.52156245 627.22833792 288.19393708 627.27867436 278.86630082 C627.381948 259.6828094 627.47122326 240.49927552 627.55126953 221.31567383 C626.97803798 221.31571474 626.40480642 221.31575565 625.81420422 221.31579781 C623.18969409 221.31596129 620.56518396 221.31606219 617.94067383 221.31616211 C617.03897209 221.31622757 616.13727036 221.31629303 615.20824432 221.31636047 C585.36797779 221.31721202 585.36797779 221.31721202 579.20751953 216.06567383 C578.66095703 215.48817383 578.11439453 214.91067383 577.55126953 214.31567383 C576.96345703 213.71754883 576.37564453 213.11942383 575.77001953 212.50317383 C571.93036479 208.30128751 569.29057484 204.67655052 569.32421875 198.82250977 C569.32436981 197.9418988 569.32452087 197.06128784 569.32467651 196.1539917 C569.33499908 195.21219055 569.34532166 194.2703894 569.35595703 193.30004883 C569.36020187 191.84359955 569.36020187 191.84359955 569.36453247 190.35772705 C569.37571661 187.26024998 569.40081811 184.16306333 569.42626953 181.06567383 C569.43630161 178.96411551 569.44542706 176.86255265 569.45361328 174.76098633 C569.4756502 169.61243713 569.51016808 164.4641047 569.55126953 159.31567383 C568.60493652 159.32920898 567.65860352 159.34274414 566.68359375 159.35668945 C562.55951154 159.30268744 560.23175435 158.08230654 556.55126953 156.31567383 C556.55126953 155.65567383 556.55126953 154.99567383 556.55126953 154.31567383 C555.23126953 154.31567383 553.91126953 154.31567383 552.55126953 154.31567383 C552.55126953 153.65567383 552.55126953 152.99567383 552.55126953 152.31567383 C551.23126953 152.31567383 549.91126953 152.31567383 548.55126953 152.31567383 C548.55126953 151.65567383 548.55126953 150.99567383 548.55126953 150.31567383 C547.23126953 150.31567383 545.91126953 150.31567383 544.55126953 150.31567383 C544.55126953 149.65567383 544.55126953 148.99567383 544.55126953 148.31567383 C543.23126953 148.31567383 541.91126953 148.31567383 540.55126953 148.31567383 C540.55126953 147.65567383 540.55126953 146.99567383 540.55126953 146.31567383 C539.82939453 146.19192383 539.10751953 146.06817383 538.36376953 145.94067383 C535.59405059 145.32518073 533.15423413 144.43123009 530.55126953 143.31567383 C530.55126953 142.65567383 530.55126953 141.99567383 530.55126953 141.31567383 C529.23126953 141.31567383 527.91126953 141.31567383 526.55126953 141.31567383 C526.55126953 140.65567383 526.55126953 139.99567383 526.55126953 139.31567383 C525.65408203 139.09911133 525.65408203 139.09911133 524.73876953 138.87817383 C522.98976549 138.42842993 521.2644993 137.88675042 519.55126953 137.31567383 C519.55126953 136.65567383 519.55126953 135.99567383 519.55126953 135.31567383 C518.23126953 135.31567383 516.91126953 135.31567383 515.55126953 135.31567383 C515.55126953 134.65567383 515.55126953 133.99567383 515.55126953 133.31567383 C514.77783203 133.16098633 514.77783203 133.16098633 513.98876953 133.00317383 C510.69100518 132.07303517 507.68493621 130.70171871 504.55126953 129.31567383 C504.55126953 128.65567383 504.55126953 127.99567383 504.55126953 127.31567383 C504.03564453 127.21254883 503.52001953 127.10942383 502.98876953 127.00317383 C499.69100518 126.07303517 496.68493621 124.70171871 493.55126953 123.31567383 C493.85909449 124.96238795 494.17266187 126.60802959 494.48876953 128.25317383 C494.66279297 129.16969727 494.83681641 130.0862207 495.01611328 131.03051758 C495.32841942 133.26857227 495.32841942 133.26857227 496.55126953 134.31567383 C496.88460286 136.64900716 497.2179362 138.98234049 497.55126953 141.31567383 C497.88126953 141.64567383 498.21126953 141.97567383 498.55126953 142.31567383 C498.88460286 144.64900716 499.2179362 146.98234049 499.55126953 149.31567383 C499.88126953 149.64567383 500.21126953 149.97567383 500.55126953 150.31567383 C500.87050445 152.37296553 501.06288305 154.43180904 501.27001953 156.50317383 C501.37124997 158.33242713 501.37124997 158.33242713 502.55126953 159.31567383 C502.88460286 161.64900716 503.2179362 163.98234049 503.55126953 166.31567383 C503.88126953 166.64567383 504.21126953 166.97567383 504.55126953 167.31567383 C504.91876535 169.01653181 505.23329411 170.72891569 505.52392578 172.44458008 C505.70117188 173.47905273 505.87841797 174.51352539 506.06103516 175.5793457 C506.2434375 176.66795898 506.42583984 177.75657227 506.61376953 178.87817383 C506.80003906 179.9706543 506.98630859 181.06313477 507.17822266 182.1887207 C507.63947831 184.89711927 508.09699016 187.60609787 508.55126953 190.31567383 C508.88126953 190.31567383 509.21126953 190.31567383 509.55126953 190.31567383 C509.55126953 192.29567383 509.55126953 194.27567383 509.55126953 196.31567383 C510.21126953 196.31567383 510.87126953 196.31567383 511.55126953 196.31567383 C513.55126953 199.31567383 513.55126953 199.31567383 513.55126953 203.31567383 C514.21126953 203.31567383 514.87126953 203.31567383 515.55126953 203.31567383 C515.75880859 203.90993164 515.96634766 204.50418945 516.18017578 205.11645508 C518.44949977 211.22179115 521.35090832 216.45661752 524.96533203 221.87036133 C528.55126953 227.39941767 528.55126953 227.39941767 528.55126953 231.31567383 C529.21126953 231.31567383 529.87126953 231.31567383 530.55126953 231.31567383 C530.55126953 232.30567383 530.55126953 233.29567383 530.55126953 234.31567383 C531.21126953 234.31567383 531.87126953 234.31567383 532.55126953 234.31567383 C533.3653125 235.96116211 533.3653125 235.96116211 534.19580078 237.63989258 C534.91834923 239.09437322 535.64101149 240.54879732 536.36376953 242.00317383 C536.72019531 242.7244043 537.07662109 243.44563477 537.44384766 244.1887207 C538.97246888 247.25998721 540.4990463 250.23172296 542.31298828 253.14770508 C543.55126953 255.31567383 543.55126953 255.31567383 543.55126953 258.31567383 C544.21126953 258.31567383 544.87126953 258.31567383 545.55126953 258.31567383 C545.81681641 258.88157227 546.08236328 259.4474707 546.35595703 260.03051758 C546.70916016 260.76399414 547.06236328 261.4974707 547.42626953 262.25317383 C547.77431641 262.98407227 548.12236328 263.7149707 548.48095703 264.46801758 C549.41976723 266.47899842 549.41976723 266.47899842 551.55126953 267.31567383 C551.67501953 268.01692383 551.79876953 268.71817383 551.92626953 269.44067383 C552.51365717 272.14265698 553.21170847 273.61866393 554.61376953 275.94067383 C556.55126953 279.31567383 556.55126953 279.31567383 556.55126953 282.31567383 C557.21126953 282.31567383 557.87126953 282.31567383 558.55126953 282.31567383 C562.55126953 288.94067383 562.55126953 288.94067383 562.55126953 292.31567383 C563.21126953 292.31567383 563.87126953 292.31567383 564.55126953 292.31567383 C565.05916016 293.4268457 565.56705078 294.53801758 566.09033203 295.68286133 C570.31207399 304.83941466 574.70676123 313.58676758 580.33642578 321.97583008 C590.18066624 336.83624403 590.18066624 336.83624403 589.18408203 343.92895508 C588.97525391 344.71657227 588.76642578 345.50418945 588.55126953 346.31567383 C588.34501953 347.40879883 588.13876953 348.50192383 587.92626953 349.62817383 C586.13202667 354.44000696 583.33282381 357.86258417 579.55126953 361.31567383 C578.56126953 361.64567383 577.57126953 361.97567383 576.55126953 362.31567383 C576.55126953 362.97567383 576.55126953 363.63567383 576.55126953 364.31567383 C572.47403219 366.26599075 569.23434531 366.53149354 564.73876953 366.44067383 C563.57732422 366.42262695 562.41587891 366.40458008 561.21923828 366.38598633 C559.89859375 366.35118164 559.89859375 366.35118164 558.55126953 366.31567383 C558.55126953 365.65567383 558.55126953 364.99567383 558.55126953 364.31567383 C557.23126953 364.31567383 555.91126953 364.31567383 554.55126953 364.31567383 C554.55126953 363.65567383 554.55126953 362.99567383 554.55126953 362.31567383 C553.56126953 362.31567383 552.57126953 362.31567383 551.55126953 362.31567383 C551.55126953 361.65567383 551.55126953 360.99567383 551.55126953 360.31567383 C550.99439453 360.13004883 550.43751953 359.94442383 549.86376953 359.75317383 C542.93112137 355.44368984 538.04380022 344.56556375 535.87939453 336.95239258 C535.71697266 336.1422168 535.71697266 336.1422168 535.55126953 335.31567383 C534.89126953 335.31567383 534.23126953 335.31567383 533.55126953 335.31567383 C533.09751953 334.24317383 532.64376953 333.17067383 532.17626953 332.06567383 C531.04768268 329.43406242 529.86497972 326.86098732 528.55126953 324.31567383 C528.05626953 323.28442383 527.56126953 322.25317383 527.05126953 321.19067383 C525.71537916 318.27989906 525.71537916 318.27989906 523.55126953 316.31567383 C522.57739161 314.45930828 521.64552069 312.58073562 520.73876953 310.69067383 C518.55690713 306.22509304 516.23852391 302.0376024 513.43408203 297.93676758 C512.55126953 296.31567383 512.55126953 296.31567383 512.55126953 293.31567383 C511.89126953 293.31567383 511.23126953 293.31567383 510.55126953 293.31567383 C510.55126953 292.32567383 510.55126953 291.33567383 510.55126953 290.31567383 C509.89126953 290.31567383 509.23126953 290.31567383 508.55126953 290.31567383 C507.23429916 287.56773565 505.92256585 284.81750198 504.61376953 282.06567383 C504.05399414 280.8997168 504.05399414 280.8997168 503.48291016 279.71020508 C503.12519531 278.95610352 502.76748047 278.20200195 502.39892578 277.42504883 C502.06900635 276.73378906 501.73908691 276.0425293 501.39916992 275.33032227 C500.56209425 273.34139384 500.01542979 271.419867 499.55126953 269.31567383 C498.89126953 269.31567383 498.23126953 269.31567383 497.55126953 269.31567383 C497.55126953 268.32567383 497.55126953 267.33567383 497.55126953 266.31567383 C496.89126953 266.31567383 496.23126953 266.31567383 495.55126953 266.31567383 C495.55126953 265.32567383 495.55126953 264.33567383 495.55126953 263.31567383 C494.89126953 263.31567383 494.23126953 263.31567383 493.55126953 263.31567383 C493.18001953 262.38754883 492.80876953 261.45942383 492.42626953 260.50317383 C490.54846519 256.06720126 488.15380606 251.94199051 485.75830078 247.76879883 C484.55126953 245.31567383 484.55126953 245.31567383 484.55126953 242.31567383 C483.89126953 242.31567383 483.23126953 242.31567383 482.55126953 242.31567383 C481.09064103 239.66828466 480.55126953 238.42119049 480.55126953 235.31567383 C479.89126953 235.31567383 479.23126953 235.31567383 478.55126953 235.31567383 C478.55126953 234.32567383 478.55126953 233.33567383 478.55126953 232.31567383 C477.89126953 232.31567383 477.23126953 232.31567383 476.55126953 232.31567383 C476.55126953 231.32567383 476.55126953 230.33567383 476.55126953 229.31567383 C475.89126953 229.31567383 475.23126953 229.31567383 474.55126953 229.31567383 C473.56126953 227.00567383 472.57126953 224.69567383 471.55126953 222.31567383 C469.86572297 228.32745658 468.26179954 234.32858327 466.98095703 240.44067383 C466.55126953 242.31567383 466.55126953 242.31567383 465.55126953 245.31567383 C465.20306912 246.97929799 464.86722461 248.64562554 464.55126953 250.31567383 C463.89126953 250.31567383 463.23126953 250.31567383 462.55126953 250.31567383 C462.55126953 252.62567383 462.55126953 254.93567383 462.55126953 257.31567383 C461.89126953 257.31567383 461.23126953 257.31567383 460.55126953 257.31567383 C460.55126953 259.29567383 460.55126953 261.27567383 460.55126953 263.31567383 C459.89126953 263.31567383 459.23126953 263.31567383 458.55126953 263.31567383 C458.55126953 265.95567383 458.55126953 268.59567383 458.55126953 271.31567383 C458.22126953 271.31567383 457.89126953 271.31567383 457.55126953 271.31567383 C457.22126953 273.29567383 456.89126953 275.27567383 456.55126953 277.31567383 C456.22126953 277.31567383 455.89126953 277.31567383 455.55126953 277.31567383 C455.22126953 305.03567383 454.89126953 332.75567383 454.55126953 361.31567383 C453.89126953 361.31567383 453.23126953 361.31567383 452.55126953 361.31567383 C452.55126953 362.30567383 452.55126953 363.29567383 452.55126953 364.31567383 C451.89126953 364.31567383 451.23126953 364.31567383 450.55126953 364.31567383 C450.51001953 364.87254883 450.46876953 365.42942383 450.42626953 366.00317383 C449.10158458 369.50412691 446.65427965 371.40399431 443.55126953 373.31567383 C442.16761842 373.81577659 440.76553413 374.26681117 439.35205078 374.67504883 C434.56582306 376.20261999 430.53799875 378.4420875 426.23876953 381.00317383 C402.03788081 394.85876089 375.77169088 401.70407624 347.95166016 401.63134766 C345.45055791 401.62820435 342.95066276 401.65167769 340.44970703 401.67700195 C325.52260562 401.73656155 310.69501914 400.15262097 296.42626953 395.56567383 C295.60336426 395.30818359 294.78045898 395.05069336 293.93261719 394.78540039 C246.07778322 379.44459735 206.85292224 344.76062149 183.58886719 300.38598633 C180.63302913 294.48822004 178.07143064 288.4094396 175.55126953 282.31567383 C175.51686768 282.90243896 175.48246582 283.4892041 175.44702148 284.09375 C173.47362324 315.60999085 165.99232042 343.20532844 143.55126953 366.31567383 C142.87837891 367.06204102 142.20548828 367.8084082 141.51220703 368.57739258 C123.76992351 387.61546086 95.67997509 399.3677281 69.91064453 400.6027832 C65.84820951 400.72741827 61.78932904 400.73794102 57.7253418 400.70678711 C55.25073585 400.69075137 52.77777865 400.70671397 50.30322266 400.72583008 C14.66419485 400.77345373 -19.49423726 389.81980383 -45.20654297 364.61254883 C-48.79980076 361.00067313 -52.26869108 357.30000333 -55.44873047 353.31567383 C-60.05394714 357.60749201 -63.66429813 362.44103552 -67.38623047 367.50317383 C-74.14795712 376.61519731 -81.05723218 385.59973025 -88.06103516 394.52661133 C-89.07772734 395.83736437 -90.05201461 397.18130494 -91.00048828 398.54223633 C-91.4784082 399.1274707 -91.95632813 399.71270508 -92.44873047 400.31567383 C-93.10873047 400.31567383 -93.76873047 400.31567383 -94.44873047 400.31567383 C-94.44873047 344.87567383 -94.44873047 289.43567383 -94.44873047 232.31567383 C-92.46873047 232.31567383 -90.48873047 232.31567383 -88.44873047 232.31567383 C-88.16787598 233.43611084 -87.88702148 234.55654785 -87.59765625 235.7109375 C-80.24357399 264.93045247 -72.82818536 294.1542768 -59.44873047 321.31567383 C-59.09987793 322.03110352 -58.75102539 322.7465332 -58.39160156 323.48364258 C-50.80803392 338.87552661 -41.47851351 352.08926729 -29.44873047 364.31567383 C-28.75650391 365.03239258 -28.06427734 365.74911133 -27.35107422 366.48754883 C-6.83009022 386.25728293 24.29920522 393.45480319 51.92724609 393.61083984 C53.32904214 393.62227979 54.73079743 393.64260303 56.13232422 393.67236328 C69.50752051 393.95509358 81.82334775 391.9588774 93.80126953 385.56567383 C94.46400879 385.22133301 95.12674805 384.87699219 95.80957031 384.5222168 C113.86154867 374.90353485 127.78340894 360.80895864 133.85986328 340.97192383 C138.70488983 322.3582625 136.22321702 302.08082396 126.66064453 285.44848633 C101.46475432 248.02792346 48.40931992 237.7843852 7.86376953 226.12817383 C-63.42937191 205.61886528 -63.42937191 205.61886528 -87.44873047 181.31567383 C-88.18736328 180.58735352 -88.92599609 179.8590332 -89.68701172 179.10864258 C-97.88484584 170.52877346 -103.05430697 160.32118575 -106.82373047 149.19067383 C-107.06236816 148.4875708 -107.30100586 147.78446777 -107.546875 147.06005859 C-111.18225915 135.60846709 -111.85581168 124.11266265 -111.82373047 112.19067383 C-111.82351898 111.46400513 -111.8233075 110.73733643 -111.8230896 109.98864746 C-111.79021227 98.65952606 -110.97158387 88.13917738 -107.44873047 77.31567383 C-107.09810547 76.19418945 -106.74748047 75.07270508 -106.38623047 73.91723633 C-101.2475581 59.1792385 -92.97912882 46.69281473 -82.44873047 35.31567383 C-81.73201172 34.51774414 -81.01529297 33.71981445 -80.27685547 32.89770508 C-59.11333339 10.42140814 -30.37483046 -0.07863091 0 0 Z M292.55126953 25.31567383 C291.58705078 26.08266602 290.62283203 26.8496582 289.62939453 27.63989258 C255.83818464 55.87696383 248.73249467 111.37262618 244.94580078 152.09692383 C243.6662524 168.11186336 243.34780369 184.06624029 243.36376953 200.12817383 C243.36437378 201.2536261 243.36497803 202.37907837 243.36560059 203.53863525 C243.45016322 261.65482256 247.67521143 330.48748885 289.86376953 375.00317383 C294.61209746 379.62912217 299.80879976 383.04246606 305.55126953 386.31567383 C306.71916016 387.00983398 306.71916016 387.00983398 307.91064453 387.71801758 C324.92513289 397.11024353 347.61525902 398.36071542 366.30126953 393.75317383 C377.64577173 390.35819108 387.53169842 385.00831002 396.55126953 377.31567383 C397.35951172 376.70336914 398.16775391 376.09106445 399.00048828 375.46020508 C401.81695952 373.09229894 403.99849026 370.55755675 406.30126953 367.69067383 C407.07986328 366.7290332 407.85845703 365.76739258 408.66064453 364.77661133 C411.91386245 360.54205082 411.68776646 357.24546689 411.66479492 352.07397461 C411.66501396 350.79570297 411.66501396 350.79570297 411.66523743 349.49160767 C411.66453886 346.6647083 411.65674683 343.83787424 411.64892578 341.01098633 C411.64706076 339.05044592 411.64563725 337.08990505 411.64463806 335.12936401 C411.64081422 329.95891033 411.63098842 324.7884846 411.61993408 319.61804199 C411.6097372 314.36230851 411.60513881 309.10657059 411.60009766 303.85083008 C411.59129216 295.35912242 411.57894336 286.86742852 411.56237793 278.37573242 C411.54514469 269.51496548 412.030813 262.50979342 415.75439453 254.39770508 C418.32967277 247.6691595 419.77844234 240.50947952 419.55126953 233.31567383 C420.21126953 233.31567383 420.87126953 233.31567383 421.55126953 233.31567383 C421.55126953 231.00567383 421.55126953 228.69567383 421.55126953 226.31567383 C422.21126953 226.31567383 422.87126953 226.31567383 423.55126953 226.31567383 C423.91242999 224.83819923 424.26502001 223.35862708 424.61376953 221.87817383 C424.81099609 221.05446289 425.00822266 220.23075195 425.21142578 219.38208008 C425.32357422 218.70016602 425.43572266 218.01825195 425.55126953 217.31567383 C425.22126953 216.98567383 424.89126953 216.65567383 424.55126953 216.31567383 C424.23203461 214.25838213 424.03965601 212.19953862 423.83251953 210.12817383 C423.7312891 208.29892053 423.7312891 208.29892053 422.55126953 207.31567383 C422.18366222 204.98749419 421.84885372 202.65383533 421.55126953 200.31567383 C420.89126953 200.31567383 420.23126953 200.31567383 419.55126953 200.31567383 C419.58382161 198.26489258 419.6163737 196.21411133 419.64892578 194.16333008 C419.75688137 192.29835242 419.75688137 192.29835242 418.55126953 191.31567383 C418.1981249 189.15525962 417.89442505 186.98669506 417.61376953 184.81567383 C416.99396213 175.48775422 416.99396213 175.48775422 413.55126953 167.31567383 C413.23203461 165.25838213 413.03965601 163.19953862 412.83251953 161.12817383 C412.7312891 159.29892053 412.7312891 159.29892053 411.55126953 158.31567383 C411.18366222 155.98749419 410.84885372 153.65383533 410.55126953 151.31567383 C409.89126953 151.31567383 409.23126953 151.31567383 408.55126953 151.31567383 C408.58382161 149.26489258 408.6163737 147.21411133 408.64892578 145.16333008 C408.75688137 143.29835242 408.75688137 143.29835242 407.55126953 142.31567383 C407.23203461 140.25838213 407.03965601 138.19953862 406.83251953 136.12817383 C406.7312891 134.29892053 406.7312891 134.29892053 405.55126953 133.31567383 C405.18366222 130.98749419 404.84885372 128.65383533 404.55126953 126.31567383 C403.89126953 126.31567383 403.23126953 126.31567383 402.55126953 126.31567383 C402.56867188 125.35854492 402.56867188 125.35854492 402.58642578 124.38208008 C402.59544922 123.55579102 402.60447266 122.72950195 402.61376953 121.87817383 C402.63117188 120.64260742 402.63117188 120.64260742 402.64892578 119.38208008 C402.78394301 117.32403445 402.78394301 117.32403445 401.55126953 116.31567383 C401.2179362 113.98234049 400.88460286 111.64900716 400.55126953 109.31567383 C400.22126953 108.98567383 399.89126953 108.65567383 399.55126953 108.31567383 C398.73729512 104.34118939 398.16732465 100.32500028 397.55126953 96.31567383 C397.34244141 95.11104492 397.34244141 95.11104492 397.12939453 93.88208008 C396.50907655 89.97555376 396.42899539 87.68634452 398.55126953 84.31567383 C398.55126953 83.32567383 398.55126953 82.33567383 398.55126953 81.31567383 C399.21126953 81.31567383 399.87126953 81.31567383 400.55126953 81.31567383 C400.55126953 80.65567383 400.55126953 79.99567383 400.55126953 79.31567383 C401.29376953 79.02692383 402.03626953 78.73817383 402.80126953 78.44067383 C405.42522093 77.43430805 405.42522093 77.43430805 407.27392578 76.34301758 C410.35182293 74.95453224 413.43035118 74.40800067 416.73876953 73.75317383 C420.96903902 73.24037521 420.96903902 73.24037521 424.55126953 71.31567383 C426.23011191 70.92250903 427.91976999 70.57481931 429.61376953 70.25317383 C430.53287109 70.07657227 431.45197266 69.8999707 432.39892578 69.71801758 C433.46433594 69.51885742 433.46433594 69.51885742 434.55126953 69.31567383 C431.72681361 68.37418852 430.40955335 68.24255688 427.53955078 68.43676758 C426.40356445 68.50927734 426.40356445 68.50927734 425.24462891 68.58325195 C424.45894531 68.63932617 423.67326172 68.69540039 422.86376953 68.75317383 C422.06648438 68.80538086 421.26919922 68.85758789 420.44775391 68.91137695 C418.48190431 69.04086405 416.51653289 69.17757424 414.55126953 69.31567383 C414.55126953 68.65567383 414.55126953 67.99567383 414.55126953 67.31567383 C413.23126953 67.31567383 411.91126953 67.31567383 410.55126953 67.31567383 C410.55126953 66.65567383 410.55126953 65.99567383 410.55126953 65.31567383 C409.23126953 65.31567383 407.91126953 65.31567383 406.55126953 65.31567383 C406.55126953 64.65567383 406.55126953 63.99567383 406.55126953 63.31567383 C405.56126953 63.31567383 404.57126953 63.31567383 403.55126953 63.31567383 C403.55126953 62.65567383 403.55126953 61.99567383 403.55126953 61.31567383 C402.89126953 61.31567383 402.23126953 61.31567383 401.55126953 61.31567383 C401.55126953 60.65567383 401.55126953 59.99567383 401.55126953 59.31567383 C400.89126953 59.31567383 400.23126953 59.31567383 399.55126953 59.31567383 C398.56126953 56.84067383 398.56126953 56.84067383 397.55126953 54.31567383 C396.89126953 54.31567383 396.23126953 54.31567383 395.55126953 54.31567383 C395.55126953 53.32567383 395.55126953 52.33567383 395.55126953 51.31567383 C394.89126953 51.31567383 394.23126953 51.31567383 393.55126953 51.31567383 C393.57745361 50.458125 393.6036377 49.60057617 393.63061523 48.71704102 C393.7159755 45.52651194 393.77858466 42.33656576 393.82592773 39.14526367 C393.85102883 37.76583681 393.88511827 36.38654241 393.9284668 35.00756836 C393.98929828 33.0223151 394.0148489 31.03608024 394.03955078 29.05004883 C394.06573486 27.85605469 394.09191895 26.66206055 394.11889648 25.43188477 C393.82901509 22.14667772 393.82901509 22.14667772 391.20751953 20.00610352 C360.94621177 0.74789626 320.16447191 1.5725036 292.55126953 25.31567383 Z M587.55126953 154.31567383 C587.48232502 160.06360288 587.42261351 165.81009208 587.38647461 171.55810547 C587.37140652 173.51258206 587.35094829 175.46702494 587.32495117 177.42138672 C587.28848088 180.23389006 587.27152331 183.04594556 587.25830078 185.85864258 C587.24281693 186.7296611 587.22733307 187.60067963 587.21138 188.49809265 C587.21006505 193.25942084 587.40361919 196.48020872 590.55126953 200.31567383 C594.04047328 202.64180966 595.50079499 202.55814676 599.61376953 202.50317383 C600.67724609 202.49672852 601.74072266 202.4902832 602.83642578 202.48364258 C605.5177574 202.49539949 605.5177574 202.49539949 607.55126953 201.31567383 C607.55126953 185.80567383 607.55126953 170.29567383 607.55126953 154.31567383 C600.95126953 154.31567383 594.35126953 154.31567383 587.55126953 154.31567383 Z " fill="#466DB5" transform="translate(859.44873046875,1109.684326171875)"/>
<path d="M0 0 C1.32 0 2.64 0 4 0 C4 57.75 4 115.5 4 175 C2.02 174.34 0.04 173.68 -2 173 C-2.0093457 172.44465576 -2.01869141 171.88931152 -2.02832031 171.31713867 C-2.96118382 126.37964037 -13.68615107 81.71407674 -45.046875 48.10546875 C-46.64060724 46.38742539 -48.11458926 44.65134665 -49.5625 42.8125 C-52.759709 39.12341269 -56.20470131 36.06430896 -60 33 C-60.76981201 32.37834961 -60.76981201 32.37834961 -61.55517578 31.74414062 C-71.01955264 24.20310796 -80.7349967 18.44020043 -92 14 C-93.73056641 13.31744141 -93.73056641 13.31744141 -95.49609375 12.62109375 C-115.51167325 6.10069498 -138.6681924 8.67625882 -157.375 17.75 C-181.13264639 29.9942376 -193.63304629 52.85199951 -201.625 77.5 C-206.70194882 93.81576042 -209.93664034 110.25887249 -212.1875 127.1875 C-212.3424292 128.3417749 -212.4973584 129.4960498 -212.65698242 130.68530273 C-215.51899115 153.7075689 -216.38288434 176.79392673 -216.31805801 199.97706985 C-216.31239311 202.03890308 -216.30958805 204.10072799 -216.30697632 206.16256714 C-216.20299542 262.71209107 -213.61530077 332.34115213 -172.5 375.875 C-156.43510333 390.97302789 -136.95500973 396.63093081 -115.3125 396.375 C-114.61034363 396.37034729 -113.90818726 396.36569458 -113.18475342 396.36090088 C-82.06599644 396.11951941 -54.40332151 387.11842923 -31.3125 365.75 C1.23054454 331.19812555 5.75676709 281.06466616 7 236 C8.98 236 10.96 236 13 236 C14.0997181 283.35555307 7.77099649 334.18327994 -25.53076172 370.46728516 C-44.93645089 390.71137233 -74.46205783 402.46541016 -102.35449219 403.16113281 C-103.91855602 403.18101763 -105.48270724 403.19474007 -107.046875 403.203125 C-107.89815979 403.20882507 -108.74944458 403.21452515 -109.62652588 403.22039795 C-111.42499573 403.22979769 -113.22348241 403.2363618 -115.02197266 403.24023438 C-117.70117646 403.24982522 -120.37957313 403.28084829 -123.05859375 403.3125 C-139.20510002 403.4124585 -154.94659195 401.51655663 -170.5625 397.3125 C-171.51447266 397.05903809 -172.46644531 396.80557617 -173.44726562 396.54443359 C-183.01545157 393.88784366 -192.04802448 390.27508332 -201 386 C-202.01247803 385.51660156 -202.01247803 385.51660156 -203.04541016 385.0234375 C-212.73469918 380.30700891 -221.44850163 374.53396553 -230 368 C-230.92167969 367.30390625 -231.84335938 366.6078125 -232.79296875 365.890625 C-265.45044194 340.22773617 -285.22908169 304.09325592 -293.8125 263.8125 C-294.0074707 262.90024658 -294.20244141 261.98799316 -294.40332031 261.0480957 C-297.7260959 244.37414996 -298.3759059 227.8274325 -298.3125 210.875 C-298.31034485 209.83752625 -298.3081897 208.80005249 -298.30596924 207.73114014 C-298.25565096 192.63827434 -298.003769 177.84342272 -295 163 C-294.70198486 161.50049805 -294.70198486 161.50049805 -294.39794922 159.97070312 C-286.81628727 123.05624419 -271.13693443 89.22446948 -245.328125 61.515625 C-243.35963602 59.38859999 -241.48484054 57.22097462 -239.625 55 C-215.99139975 28.02150505 -179.01423077 5.97169807 -142.90835571 2.81726074 C-138.02271054 2.53109709 -133.14234104 2.51876764 -128.25 2.5625 C-127.51187073 2.56587372 -126.77374146 2.56924744 -126.01324463 2.57272339 C-98.15733388 2.7564358 -74.31446444 10.54044099 -53 29 C-52.01902344 29.84691406 -51.03804687 30.69382812 -50.02734375 31.56640625 C-42.44323698 38.24844393 -34.20875544 45.64962064 -30 55 C-29.34 55 -28.68 55 -28 55 C-27.75467529 54.18031738 -27.50935059 53.36063477 -27.2565918 52.51611328 C-25.78318929 48.3933344 -23.90379567 44.6248386 -21.89453125 40.7421875 C-21.49223801 39.95788361 -21.08994476 39.17357971 -20.67546082 38.36550903 C-19.82436543 36.70875387 -18.97115682 35.0530828 -18.1159668 33.3984375 C-16.82878419 30.90652526 -15.54962595 28.41062172 -14.27148438 25.9140625 C-11.88095014 21.25820945 -9.45209949 16.62368633 -7 12 C-6.48176666 11.01392761 -6.48176666 11.01392761 -5.95306396 10.00793457 C-5.0318882 8.26928439 -4.08523598 6.5441989 -3.13671875 4.8203125 C-2.62197998 3.87687988 -2.10724121 2.93344727 -1.5769043 1.96142578 C-1.05652588 1.31415527 -0.53614746 0.66688477 0 0 Z " fill="#466DB5" transform="translate(2108,1107)"/>
<path d="M0 0 C1.09232941 0.00081573 1.09232941 0.00081573 2.20672607 0.00164795 C31.1149288 0.10079805 56.87088146 9.6942141 79 28.375 C79.51159668 28.80151855 80.02319336 29.22803711 80.55029297 29.66748047 C102.33547398 48.0256238 116.52811748 73.52599792 122 101.375 C122.33644531 103.01275391 122.33644531 103.01275391 122.6796875 104.68359375 C127.76916604 134.83701112 123.92676589 167.0942915 110 194.375 C109.55011719 195.29539062 109.10023438 196.21578125 108.63671875 197.1640625 C98.21453089 217.53870581 80.86460579 233.89904665 62 246.375 C61.23429687 246.88804687 60.46859375 247.40109375 59.6796875 247.9296875 C35.24442253 263.49406419 3.40405547 267.02007271 -24.8125 262.3125 C-56.91093052 254.72046198 -85.33468427 235.37955867 -103.22070312 207.47021484 C-115.20471531 187.93042912 -123.0668123 165.28481095 -123.203125 142.1953125 C-123.20882507 141.42428192 -123.21452515 140.65325134 -123.22039795 139.8588562 C-123.22979958 138.2301366 -123.23636256 136.60139839 -123.24023438 134.97265625 C-123.24983687 132.54130453 -123.28086242 130.11083775 -123.3125 127.6796875 C-123.5468665 93.11820599 -110.53469412 62.50203827 -87 37.375 C-63.49084548 13.56228395 -33.49517112 -0.09406888 0 0 Z M-38.25 22.9375 C-56.93563836 48.04274418 -59.10000031 84.53205128 -59.203125 114.58984375 C-59.20595238 115.2465613 -59.20877975 115.90327885 -59.21169281 116.57989693 C-59.22656378 120.07043965 -59.23586358 123.56094251 -59.24023438 127.05151367 C-59.24457197 129.86187051 -59.25829558 132.67191217 -59.28125 135.48217773 C-60.45136021 194.34196693 -60.45136021 194.34196693 -35.9609375 245.5625 C-24.16075893 256.46943796 -9.56800334 258.245208 5.796875 257.7578125 C15.94725185 257.17935016 24.08923408 253.67601704 32 247.375 C32.60328125 246.89675781 33.2065625 246.41851563 33.828125 245.92578125 C53.42626052 228.40222314 56.9904681 194.96362275 59 170.375 C59.08757568 169.38161621 59.17515137 168.38823242 59.26538086 167.36474609 C60.22610122 155.12820258 60.19852133 142.89240369 60.1875 130.625 C60.18722809 129.49182343 60.18695618 128.35864685 60.18667603 127.19113159 C60.16825018 110.51191043 59.9462629 93.96028352 58 77.375 C57.84724609 76.02486816 57.84724609 76.02486816 57.69140625 74.64746094 C55.06054604 52.30950894 50.32645623 30.68347282 32.65625 15.33984375 C11.53195437 -0.81201216 -21.09872762 3.15263493 -38.25 22.9375 Z " fill="#466DB5" transform="translate(2248,1246.625)"/>
<path d="M0 0 C3.63 0 7.26 0 11 0 C11 41.91 11 83.82 11 127 C34.1 127 57.2 127 81 127 C81 132.94 81 138.88 81 145 C57.9 145 34.8 145 11 145 C11.10834936 167.60216325 11.22046954 190.20429777 11.33933926 212.80640793 C11.39442402 223.30289424 11.44786291 233.79938395 11.49731445 244.29589844 C11.54046203 253.45342817 11.58681252 262.61093538 11.63687855 271.76842999 C11.66323599 276.60925124 11.68807835 281.45006873 11.70907402 286.29091644 C11.72896084 290.86436852 11.75318906 295.43777869 11.78049088 300.01119232 C11.78969499 301.67339297 11.79742629 303.33560267 11.80341911 304.99781799 C10.4858599 337.19896475 10.4858599 337.19896475 22.515625 365.796875 C28.81051738 371.42914713 36.22128254 371.44214529 44.234375 371.30859375 C52.11646144 370.66265513 58.14916328 367.92621943 63.47265625 362.0390625 C77.31764313 343.55547387 76.01306928 315.64766087 76.31640625 293.62890625 C76.3475779 291.69639259 76.3475779 291.69639259 76.37937927 289.72483826 C76.43366798 286.35656143 76.48347397 282.98823394 76.53222656 279.61987305 C76.58313798 276.15994952 76.63845435 272.70009642 76.69335938 269.24023438 C76.79979452 262.49355097 76.90147666 255.74680348 77 249 C79.64 249 82.28 249 85 249 C87.86252302 351.02306112 87.86252302 351.02306112 70.2578125 369.89453125 C54.13218355 384.93209873 31.42467144 383.73716111 10.89453125 383.17919922 C-5.75229987 382.41322793 -20.54712496 376.24821358 -32 364 C-46.85110027 346.59636687 -47.16356269 324.36876417 -47.11352539 302.68676758 C-47.11324284 300.96102907 -47.11340259 299.23529044 -47.1139679 297.509552 C-47.1142532 292.85538246 -47.10839975 288.20123902 -47.10139394 283.54707551 C-47.09511583 278.67174047 -47.09455309 273.79640474 -47.09336853 268.92106628 C-47.09026831 259.7026506 -47.08207265 250.48424686 -47.07201904 241.26583642 C-47.06081714 230.76517815 -47.0553372 220.26451929 -47.05032361 209.76385653 C-47.03988887 188.17589622 -47.02155976 166.58795227 -47 145 C-62.84 145 -78.68 145 -95 145 C-95 143.02 -95 141.04 -95 139 C-94.4423999 138.82984375 -93.8847998 138.6596875 -93.31030273 138.484375 C-59.83843112 128.14196207 -36.09375119 109.89173194 -18.94140625 78.87890625 C-6.26193905 54.23548831 -1.35931833 27.46760494 0 0 Z " fill="#466DB5" transform="translate(1723,1127)"/>
<path d="M0 0 C9.86641851 6.57167587 15.4174424 14.20154594 19.1640625 25.44140625 C20.15388965 39.22828443 19.11389206 49.84606683 9.9765625 60.87890625 C3.12119169 68.02135289 -4.90987689 71.52374922 -14.70361328 71.73461914 C-27.94015806 71.82935433 -35.80832077 70.22040343 -45.63671875 60.80859375 C-54.13302803 51.66336564 -55.43038405 41.94586695 -55.13671875 29.89453125 C-54.57791754 18.95766479 -49.82587576 11.73370575 -41.8359375 4.44140625 C-30.95360776 -3.9721554 -12.55573167 -6.36659892 0 0 Z " fill="#466DB5" transform="translate(2432.8359375,1438.55859375)"/>
<path d="M0 0 C2.74622912 1.40969843 4.64508425 2.95224717 7 5 C8.175625 3.7625 8.175625 3.7625 9.375 2.5 C12.97508557 -0.51004779 16.08856159 -0.61262712 20.6640625 -0.3515625 C23.81773073 0.12306984 25.62943817 0.84494379 28 3 C30.74207434 7.54643159 31.36062377 10.87134575 31.29296875 16.1484375 C31.28872391 16.80582916 31.28447906 17.46322083 31.28010559 18.14053345 C31.26344977 20.21912391 31.2258262 22.29670774 31.1875 24.375 C31.17243605 25.79295464 31.15875065 27.21092464 31.14648438 28.62890625 C31.11359038 32.0862589 31.06190165 35.54303103 31 39 C28.69 39 26.38 39 24 39 C23.98541748 38.23856689 23.97083496 37.47713379 23.95581055 36.69262695 C23.88119459 33.23208112 23.78457741 29.77248555 23.6875 26.3125 C23.65366211 24.51522461 23.65366211 24.51522461 23.61914062 22.68164062 C23.58369141 21.52470703 23.54824219 20.36777344 23.51171875 19.17578125 C23.48553467 18.11270752 23.45935059 17.04963379 23.43237305 15.9543457 C22.90320374 12.33860441 21.60585051 9.60585051 19 7 C15.55107891 7.01592762 15.55107891 7.01592762 12 8 C9.13105381 11.67163939 8.6013894 14.58359042 8.48828125 19.17578125 C8.45283203 20.33271484 8.41738281 21.48964844 8.38085938 22.68164062 C8.35830078 23.87982422 8.33574219 25.07800781 8.3125 26.3125 C8.27833984 27.53001953 8.24417969 28.74753906 8.20898438 30.00195312 C8.12665183 33.00121014 8.05745079 36.00018014 8 39 C5.69 39 3.38 39 1 39 C0.98541748 38.27409668 0.97083496 37.54819336 0.95581055 36.80029297 C0.88105141 33.49134268 0.7844821 30.18337048 0.6875 26.875 C0.66494141 25.73289062 0.64238281 24.59078125 0.61914062 23.4140625 C0.45614547 15.25268458 0.45614547 15.25268458 -3 8 C-5.84627591 6.66449153 -5.84627591 6.66449153 -9 7 C-11.74716387 8.77039449 -13.53145922 10.06291844 -15 13 C-15.15378852 14.95774069 -15.24971463 16.92017352 -15.31640625 18.8828125 C-15.35830078 20.04941406 -15.40019531 21.21601562 -15.44335938 22.41796875 C-15.50233398 24.25294922 -15.50233398 24.25294922 -15.5625 26.125 C-15.60568359 27.35605469 -15.64886719 28.58710937 -15.69335938 29.85546875 C-15.79968704 32.90352853 -15.90171781 35.9516719 -16 39 C-18.31 39 -20.62 39 -23 39 C-23.33 26.46 -23.66 13.92 -24 1 C-21.69 1 -19.38 1 -17 1 C-16.67 1.99 -16.34 2.98 -16 4 C-15.21625 3.34 -14.4325 2.68 -13.625 2 C-9.3453318 -0.82275988 -4.95380618 -0.94395362 0 0 Z " fill="#363637" transform="translate(1155,1579)"/>
<path d="M0 0 C3.1875 2 3.1875 2 5 4 C5.33 3.01 5.66 2.02 6 1 C8.31 1 10.62 1 13 1 C12.93091759 6.85368468 12.84285063 12.70666907 12.73754883 18.55981445 C12.70439316 20.54899294 12.67633235 22.53826339 12.65356445 24.52758789 C12.619846 27.39509084 12.56752177 30.26175817 12.51171875 33.12890625 C12.50213387 34.45276085 12.50213387 34.45276085 12.49235535 35.80335999 C12.3500888 41.8431557 11.58753328 46.9946879 7.5 51.7421875 C2.34652779 55.63413266 -0.98224378 56.15610139 -7.375 56.1875 C-8.68210937 56.20167969 -9.98921875 56.21585938 -11.3359375 56.23046875 C-14.73798963 56.0164804 -16.96683747 55.48144811 -20 54 C-19.625 51.0625 -19.625 51.0625 -19 48 C-18.01 47.505 -18.01 47.505 -17 47 C-16.41089844 47.30035156 -15.82179688 47.60070313 -15.21484375 47.91015625 C-11.05214689 49.9584674 -6.51494156 49.62874742 -2 49 C1.31366812 47.26977606 1.31366812 47.26977606 3 44 C3.65831485 40.99486808 3.92637591 38.07213235 4 35 C3.401875 35.66 2.80375 36.32 2.1875 37 C-2.46391661 39.91853591 -6.64379239 39.65536679 -12 39 C-16.60776793 37.19696037 -19.08972958 33.88036056 -22 30 C-24.19745934 23.40762199 -24.29500228 14.73686979 -21.3125 8.375 C-16.33353841 0.12969836 -8.99061008 -1.01062332 0 0 Z M-14 11 C-16.13932854 16.15383695 -16.52166857 20.66876403 -15 26 C-12.72972734 30.23896421 -12.72972734 30.23896421 -9 33 C-3.05905401 33.65554599 -3.05905401 33.65554599 1.9375 30.75 C5.71235038 25.71686616 5.549512 20.1121159 5 14 C3.45771534 9.88724091 2.66328593 8.44219062 -1 6 C-7.28728938 5.29014475 -10.08409862 5.58684221 -14 11 Z " fill="#363637" transform="translate(2392,1579)"/>
<path d="M0 0 C3.1875 2 3.1875 2 5 4 C5.33 3.01 5.66 2.02 6 1 C8.31 1 10.62 1 13 1 C12.93091759 6.85368468 12.84285063 12.70666907 12.73754883 18.55981445 C12.70439316 20.54899294 12.67633235 22.53826339 12.65356445 24.52758789 C12.619846 27.39509084 12.56752177 30.26175817 12.51171875 33.12890625 C12.50213387 34.45276085 12.50213387 34.45276085 12.49235535 35.80335999 C12.3500888 41.8431557 11.58753328 46.9946879 7.5 51.7421875 C2.34652779 55.63413266 -0.98224378 56.15610139 -7.375 56.1875 C-8.68210937 56.20167969 -9.98921875 56.21585938 -11.3359375 56.23046875 C-14.73798963 56.0164804 -16.96683747 55.48144811 -20 54 C-19.625 51.0625 -19.625 51.0625 -19 48 C-18.01 47.505 -18.01 47.505 -17 47 C-16.41089844 47.30035156 -15.82179688 47.60070313 -15.21484375 47.91015625 C-11.05214689 49.9584674 -6.51494156 49.62874742 -2 49 C1.31366812 47.26977606 1.31366812 47.26977606 3 44 C3.65831485 40.99486808 3.92637591 38.07213235 4 35 C3.401875 35.66 2.80375 36.32 2.1875 37 C-2.46391661 39.91853591 -6.64379239 39.65536679 -12 39 C-16.60776793 37.19696037 -19.08972958 33.88036056 -22 30 C-24.19745934 23.40762199 -24.29500228 14.73686979 -21.3125 8.375 C-16.33353841 0.12969836 -8.99061008 -1.01062332 0 0 Z M-14 11 C-16.13932854 16.15383695 -16.52166857 20.66876403 -15 26 C-12.72972734 30.23896421 -12.72972734 30.23896421 -9 33 C-3.05905401 33.65554599 -3.05905401 33.65554599 1.9375 30.75 C5.71235038 25.71686616 5.549512 20.1121159 5 14 C3.45771534 9.88724091 2.66328593 8.44219062 -1 6 C-7.28728938 5.29014475 -10.08409862 5.58684221 -14 11 Z " fill="#363637" transform="translate(2178,1579)"/>
<path d="M0 0 C3.1875 2 3.1875 2 5 4 C5.33 3.01 5.66 2.02 6 1 C8.31 1 10.62 1 13 1 C12.93091759 6.85368468 12.84285063 12.70666907 12.73754883 18.55981445 C12.70439316 20.54899294 12.67633235 22.53826339 12.65356445 24.52758789 C12.619846 27.39509084 12.56752177 30.26175817 12.51171875 33.12890625 C12.50213387 34.45276085 12.50213387 34.45276085 12.49235535 35.80335999 C12.3500888 41.8431557 11.58753328 46.9946879 7.5 51.7421875 C2.34652779 55.63413266 -0.98224378 56.15610139 -7.375 56.1875 C-8.68210937 56.20167969 -9.98921875 56.21585938 -11.3359375 56.23046875 C-14.73798963 56.0164804 -16.96683747 55.48144811 -20 54 C-19.625 51.0625 -19.625 51.0625 -19 48 C-18.01 47.505 -18.01 47.505 -17 47 C-16.41089844 47.30035156 -15.82179688 47.60070313 -15.21484375 47.91015625 C-11.05214689 49.9584674 -6.51494156 49.62874742 -2 49 C1.31366812 47.26977606 1.31366812 47.26977606 3 44 C3.65831485 40.99486808 3.92637591 38.07213235 4 35 C3.401875 35.66 2.80375 36.32 2.1875 37 C-2.46391661 39.91853591 -6.64379239 39.65536679 -12 39 C-16.60776793 37.19696037 -19.08972958 33.88036056 -22 30 C-24.19745934 23.40762199 -24.29500228 14.73686979 -21.3125 8.375 C-16.33353841 0.12969836 -8.99061008 -1.01062332 0 0 Z M-14 11 C-16.13932854 16.15383695 -16.52166857 20.66876403 -15 26 C-12.72972734 30.23896421 -12.72972734 30.23896421 -9 33 C-3.05905401 33.65554599 -3.05905401 33.65554599 1.9375 30.75 C5.71235038 25.71686616 5.549512 20.1121159 5 14 C3.45771534 9.88724091 2.66328593 8.44219062 -1 6 C-7.28728938 5.29014475 -10.08409862 5.58684221 -14 11 Z " fill="#363637" transform="translate(1260,1579)"/>
<path d="M0 0 C0.93005859 -0.02900391 1.86011719 -0.05800781 2.81835938 -0.08789062 C9.06689346 -0.14497491 13.72882558 0.73657758 18.9375 4.3125 C22.42365414 8.01653877 22.44220013 11.99207569 22.296875 16.875 C21.57985665 21.73825492 18.48876608 25.11636052 14.9375 28.3125 C15.54078125 28.94800781 16.1440625 29.58351563 16.765625 30.23828125 C19.53232256 34.15445208 20.51932946 37.89711418 21.6875 42.5 C21.90792969 43.31919922 22.12835937 44.13839844 22.35546875 44.98242188 C23.9375 50.95188762 23.9375 50.95188762 23.9375 53.3125 C21.2975 53.3125 18.6575 53.3125 15.9375 53.3125 C15.49783498 52.02156867 15.06094701 50.72969164 14.625 49.4375 C14.3465625 48.6228125 14.068125 47.808125 13.78125 46.96875 C13.21811389 45.19591409 12.717711 43.40194558 12.28125 41.59375 C11.01288033 36.16224374 11.01288033 36.16224374 7.25 32.25 C3.21391207 31.01774488 3.21391207 31.01774488 -4.0625 30.3125 C-4.0625 37.9025 -4.0625 45.4925 -4.0625 53.3125 C-6.3725 53.3125 -8.6825 53.3125 -11.0625 53.3125 C-11.08776692 45.92521898 -11.1053316 38.53794902 -11.11743164 31.15063477 C-11.12247363 28.63533105 -11.12930703 26.12003028 -11.13793945 23.60473633 C-11.15001094 19.99820225 -11.15572949 16.39170677 -11.16015625 12.78515625 C-11.16531754 11.65288101 -11.17047882 10.52060577 -11.17579651 9.35401917 C-11.17587204 8.31301559 -11.17594757 7.27201202 -11.17602539 6.19946289 C-11.178246 5.27790909 -11.18046661 4.35635529 -11.18275452 3.40687561 C-10.88620245 -1.75793185 -3.9577883 0.03997766 0 0 Z M-4.0625 6.3125 C-4.0625 12.2525 -4.0625 18.1925 -4.0625 24.3125 C-1.2471875 24.4053125 -1.2471875 24.4053125 1.625 24.5 C3.20861328 24.55220703 3.20861328 24.55220703 4.82421875 24.60546875 C8.33702205 24.27490382 10.12835609 23.40558762 12.9375 21.3125 C14.70977689 18.33185251 14.95828429 16.65890479 14.75 13.1875 C13.91343269 10.22733876 13.38483277 9.10093549 10.9375 7.3125 C6.03681037 5.67893679 1.08011524 6.25720306 -4.0625 6.3125 Z " fill="#363637" transform="translate(1037.0625,1564.6875)"/>
<path d="M0 0 C2.31 0 4.62 0 7 0 C7.33 18.48 7.66 36.96 8 56 C5.69 56 3.38 56 1 56 C1 54.68 1 53.36 1 52 C0.32517578 52.54140625 0.32517578 52.54140625 -0.36328125 53.09375 C-5.36899291 56.70508507 -9.28239371 57.73356007 -15.44921875 57.41796875 C-20.68272647 56.56041082 -23.20793674 54.04894864 -26.3125 49.9375 C-29.94270122 43.61826084 -29.56756333 37.11819006 -29 30 C-27.47864943 24.58432269 -24.76971029 21.05750659 -20 18 C-16.98322461 16.9944082 -14.78488793 16.80194336 -11.625 16.75 C-10.22121094 16.71132812 -10.22121094 16.71132812 -8.7890625 16.671875 C-6 17 -6 17 -1 20 C-0.67 13.4 -0.34 6.8 0 0 Z M-20 28 C-22.34237896 33.29581331 -22.58921153 38.45787626 -21 44 C-19.20579079 47.00498676 -17.18332572 49.40833714 -14 51 C-10.13110388 51.43964729 -8.24334506 51.12635224 -4.75 49.3125 C-1.7248739 46.76864396 -0.83029198 45.81934311 0 42 C0.60068923 34.18923343 0.60068923 34.18923343 -2 27 C-4.79479947 24.0454977 -6.40244275 23.09778209 -10.4375 22.4375 C-15.05144792 23.16601809 -16.86111839 24.5691294 -20 28 Z " fill="#363637" transform="translate(2117,1562)"/>
<path d="M0 0 C2.31 0 4.62 0 7 0 C7.33 6.93 7.66 13.86 8 21 C9.98 19.68 11.96 18.36 14 17 C18.75775917 16.16194811 23.36854076 16.36160291 27.875 18.125 C32.49494875 22.20142536 35.77621654 25.90738594 36.23828125 32.29296875 C36.50635504 46.35978789 36.50635504 46.35978789 32 52 C26.88272435 56.86765245 22.56507758 57.32792803 15.7421875 57.30078125 C11.81569809 56.87009794 9.95041002 55.55170596 7 53 C6.67 53.99 6.34 54.98 6 56 C3.69 56 1.38 56 -1 56 C-0.67 37.52 -0.34 19.04 0 0 Z M9 27 C6.21196218 31.513966 6.4650008 36.86400764 7 42 C8.49674559 46.11605038 10.01591999 49.00796 14 51 C18.49439099 51.6658357 20.42855428 51.35580582 24.3125 48.9375 C27.85831976 45.06183654 29.01030387 41.99842593 28.9921875 36.7265625 C28.64235854 32.1483661 27.90935368 28.69264121 25 25 C19.21153149 21.14102099 13.61487182 21.9779336 9 27 Z " fill="#363637" transform="translate(1522,1562)"/>
<path d="M0 0 C2.31 0 4.62 0 7 0 C7.33 6.93 7.66 13.86 8 21 C9.98 19.68 11.96 18.36 14 17 C18.05705069 16.10324337 22.15728762 16.04465936 25.90625 17.98828125 C28.78177357 20.26473741 30.7139905 22.6004746 32 26 C32.22705078 29.20800781 32.22705078 29.20800781 32.1953125 32.953125 C32.1924826 33.61334656 32.18965271 34.27356812 32.18673706 34.95379639 C32.17558415 37.05271897 32.15048946 39.15120742 32.125 41.25 C32.11496384 42.67707715 32.1058391 44.10416102 32.09765625 45.53125 C32.07566111 49.02097328 32.04116536 52.51044423 32 56 C29.69 56 27.38 56 25 56 C24.98541748 55.30962646 24.97083496 54.61925293 24.95581055 53.90795898 C24.88089383 50.7506034 24.78437783 47.59425499 24.6875 44.4375 C24.66494141 43.35146484 24.64238281 42.26542969 24.61914062 41.14648438 C24.41723532 35.1076802 24.13093591 30.25000025 21 25 C17.64982715 23.58090318 17.64982715 23.58090318 14 24 C10.57258371 26.08625339 9.27518963 27.1744311 8 31 C7.85060226 32.91765594 7.75189717 34.83946522 7.68359375 36.76171875 C7.64169922 37.87998047 7.59980469 38.99824219 7.55664062 40.15039062 C7.51732422 41.31763672 7.47800781 42.48488281 7.4375 43.6875 C7.37272461 45.45577148 7.37272461 45.45577148 7.30664062 47.25976562 C7.20048824 50.17305883 7.09843758 53.08643757 7 56 C4.69 56 2.38 56 0 56 C0 37.52 0 19.04 0 0 Z " fill="#363637" transform="translate(1985,1562)"/>
<path d="M0 0 C4.18585526 2.34912404 7.05516723 5.22377562 8.953125 9.65234375 C10.54598383 16.09390493 10.77471394 23.20761913 8.265625 29.38671875 C6.70142312 31.95518882 5.38616468 33.59557141 3.07421875 35.4765625 C2.1925 36.21326172 2.1925 36.21326172 1.29296875 36.96484375 C-3.53843524 40.33584608 -9.81835734 39.7752646 -15.42578125 39.1640625 C-20.06920742 37.56391242 -23.34162675 34.89889528 -25.92578125 30.7265625 C-28.40692563 24.93722561 -28.21771835 18.31406048 -27.42578125 12.1640625 C-25.83410476 8.24426219 -24.20610445 5.52042194 -20.92578125 2.8515625 C-20.33796875 2.36042969 -19.75015625 1.86929687 -19.14453125 1.36328125 C-13.9568921 -2.25627607 -5.79002906 -1.99527572 0 0 Z M-18.42578125 10.1640625 C-20.7640247 15.55218871 -20.60128363 19.55782039 -19.42578125 25.1640625 C-17.73715014 28.78255774 -15.98812021 31.28393916 -12.42578125 33.1640625 C-8.44637235 33.67053272 -6.21569922 33.59492685 -2.67578125 31.6640625 C0.68189451 27.93331165 2.48721197 24.11685516 2.63671875 19.04296875 C2.15242442 13.70564161 0.49617137 10.15465629 -3.17578125 6.3515625 C-9.43134088 3.05001714 -13.95354284 5.27580191 -18.42578125 10.1640625 Z " fill="#363637" transform="translate(1890.42578125,1579.8359375)"/>
<path d="M0 0 C4.18585526 2.34912404 7.05516723 5.22377562 8.953125 9.65234375 C10.54598383 16.09390493 10.77471394 23.20761913 8.265625 29.38671875 C6.70142312 31.95518882 5.38616468 33.59557141 3.07421875 35.4765625 C2.1925 36.21326172 2.1925 36.21326172 1.29296875 36.96484375 C-3.53843524 40.33584608 -9.81835734 39.7752646 -15.42578125 39.1640625 C-20.06920742 37.56391242 -23.34162675 34.89889528 -25.92578125 30.7265625 C-28.40692563 24.93722561 -28.21771835 18.31406048 -27.42578125 12.1640625 C-25.83410476 8.24426219 -24.20610445 5.52042194 -20.92578125 2.8515625 C-20.33796875 2.36042969 -19.75015625 1.86929687 -19.14453125 1.36328125 C-13.9568921 -2.25627607 -5.79002906 -1.99527572 0 0 Z M-18.42578125 10.1640625 C-20.7640247 15.55218871 -20.60128363 19.55782039 -19.42578125 25.1640625 C-17.73715014 28.78255774 -15.98812021 31.28393916 -12.42578125 33.1640625 C-8.44637235 33.67053272 -6.21569922 33.59492685 -2.67578125 31.6640625 C0.68189451 27.93331165 2.48721197 24.11685516 2.63671875 19.04296875 C2.15242442 13.70564161 0.49617137 10.15465629 -3.17578125 6.3515625 C-9.43134088 3.05001714 -13.95354284 5.27580191 -18.42578125 10.1640625 Z " fill="#363637" transform="translate(1409.42578125,1579.8359375)"/>
<path d="M0 0 C2.64 0 5.28 0 8 0 C11.68423013 8.55995596 14.94143568 17.2017469 18 26 C19.89213234 23.16180149 20.84875543 20.87702043 21.9453125 17.67578125 C22.29980469 16.64775391 22.65429688 15.61972656 23.01953125 14.56054688 C23.38433594 13.48869141 23.74914063 12.41683594 24.125 11.3125 C24.68380859 9.68731445 24.68380859 9.68731445 25.25390625 8.02929688 C26.1731173 5.35415702 27.08831688 2.67771279 28 0 C30.64 0 33.28 0 36 0 C35.28589132 4.39422991 33.84162443 8.42908432 32.26953125 12.57421875 C31.99662766 13.2980928 31.72372406 14.02196686 31.44255066 14.76777649 C30.86383567 16.29741606 30.28292144 17.82622517 29.69995117 19.35424805 C28.82333169 21.65902173 27.96123268 23.96888273 27.09960938 26.27929688 C18.38798182 49.35040915 18.38798182 49.35040915 9 55 C5.5625 55.875 5.5625 55.875 3 56 C2.67 53.69 2.34 51.38 2 49 C2.54269531 48.69707031 3.08539062 48.39414063 3.64453125 48.08203125 C9.5457938 44.69262505 9.5457938 44.69262505 13 39 C12.52524234 34.26695247 11.03681643 30.08495326 9.27734375 25.703125 C9.01240616 25.02828064 8.74746857 24.35343628 8.47450256 23.65814209 C7.63434061 21.51987456 6.78653511 19.38475816 5.9375 17.25 C5.08577848 15.10063449 4.23578488 12.95063582 3.38978577 10.79901123 C2.86471289 9.46431954 2.33620634 8.13097255 1.80393982 6.7991333 C0 2.22403747 0 2.22403747 0 0 Z " fill="#363637" transform="translate(1341,1580)"/>
<path d="M0 0 C3.55548245 1.55392489 5.38041288 3.75010579 7.11474609 7.2487793 C8.17114969 10.53190455 8.3229472 13.38483555 8.4140625 16.83203125 C8.45273438 18.12431641 8.49140625 19.41660156 8.53125 20.74804688 C8.56270014 22.10285995 8.59394761 23.45767775 8.625 24.8125 C8.6632175 26.18687272 8.7022714 27.56122244 8.7421875 28.93554688 C8.83635404 32.29022989 8.921982 35.64490893 9 39 C5.625 39.125 5.625 39.125 2 39 C1.34 38.34 0.68 37.68 0 37 C-0.598125 37.495 -1.19625 37.99 -1.8125 38.5 C-6.49929275 40.70554953 -10.90353305 40.71166881 -16 40 C-19.00197464 38.19881522 -20.45166366 37.09667268 -22 34 C-22.64851184 28.84896311 -22.64562229 25.1096633 -20 20.5625 C-13.83236099 15.29430835 -7.93886009 14.50382124 0 15 C-0.8604139 10.66770285 -0.8604139 10.66770285 -3 7 C-8.03761016 6.68281714 -13.09961113 6.69322963 -18 8 C-18.66 6.35 -19.32 4.7 -20 3 C-13.42029622 -0.77129363 -7.43254611 -0.94227777 0 0 Z M-13 23 C-14.71195826 24.7543576 -14.71195826 24.7543576 -15 27 C-14.68097423 30.34977063 -14.40820361 31.59179639 -12 34 C-7.8468326 34.47016989 -5.6982798 34.44021988 -2.125 32.1875 C0.7888634 29.18793473 0.99180781 27.48333947 1.0625 23.3125 C1.041875 22.219375 1.02125 21.12625 1 20 C-4.19424173 19.61043187 -8.43448905 20.55530993 -13 23 Z " fill="#363637" transform="translate(2351,1579)"/>
<path d="M0 0 C3.55548245 1.55392489 5.38041288 3.75010579 7.11474609 7.2487793 C8.17114969 10.53190455 8.3229472 13.38483555 8.4140625 16.83203125 C8.45273438 18.12431641 8.49140625 19.41660156 8.53125 20.74804688 C8.56270014 22.10285995 8.59394761 23.45767775 8.625 24.8125 C8.6632175 26.18687272 8.7022714 27.56122244 8.7421875 28.93554688 C8.83635404 32.29022989 8.921982 35.64490893 9 39 C5.625 39.125 5.625 39.125 2 39 C1.34 38.34 0.68 37.68 0 37 C-0.598125 37.495 -1.19625 37.99 -1.8125 38.5 C-6.49929275 40.70554953 -10.90353305 40.71166881 -16 40 C-19.00197464 38.19881522 -20.45166366 37.09667268 -22 34 C-22.64851184 28.84896311 -22.64562229 25.1096633 -20 20.5625 C-13.83236099 15.29430835 -7.93886009 14.50382124 0 15 C-0.8604139 10.66770285 -0.8604139 10.66770285 -3 7 C-8.03761016 6.68281714 -13.09961113 6.69322963 -18 8 C-18.66 6.35 -19.32 4.7 -20 3 C-13.42029622 -0.77129363 -7.43254611 -0.94227777 0 0 Z M-13 23 C-14.71195826 24.7543576 -14.71195826 24.7543576 -15 27 C-14.68097423 30.34977063 -14.40820361 31.59179639 -12 34 C-7.8468326 34.47016989 -5.6982798 34.44021988 -2.125 32.1875 C0.7888634 29.18793473 0.99180781 27.48333947 1.0625 23.3125 C1.041875 22.219375 1.02125 21.12625 1 20 C-4.19424173 19.61043187 -8.43448905 20.55530993 -13 23 Z " fill="#363637" transform="translate(2272,1579)"/>
<path d="M0 0 C3.55548245 1.55392489 5.38041288 3.75010579 7.11474609 7.2487793 C8.17114969 10.53190455 8.3229472 13.38483555 8.4140625 16.83203125 C8.45273438 18.12431641 8.49140625 19.41660156 8.53125 20.74804688 C8.56270014 22.10285995 8.59394761 23.45767775 8.625 24.8125 C8.6632175 26.18687272 8.7022714 27.56122244 8.7421875 28.93554688 C8.83635404 32.29022989 8.921982 35.64490893 9 39 C5.625 39.125 5.625 39.125 2 39 C1.34 38.34 0.68 37.68 0 37 C-0.598125 37.495 -1.19625 37.99 -1.8125 38.5 C-6.49929275 40.70554953 -10.90353305 40.71166881 -16 40 C-19.00197464 38.19881522 -20.45166366 37.09667268 -22 34 C-22.64851184 28.84896311 -22.64562229 25.1096633 -20 20.5625 C-13.83236099 15.29430835 -7.93886009 14.50382124 0 15 C-0.8604139 10.66770285 -0.8604139 10.66770285 -3 7 C-8.03761016 6.68281714 -13.09961113 6.69322963 -18 8 C-18.66 6.35 -19.32 4.7 -20 3 C-13.42029622 -0.77129363 -7.43254611 -0.94227777 0 0 Z M-13 23 C-14.71195826 24.7543576 -14.71195826 24.7543576 -15 27 C-14.68097423 30.34977063 -14.40820361 31.59179639 -12 34 C-7.8468326 34.47016989 -5.6982798 34.44021988 -2.125 32.1875 C0.7888634 29.18793473 0.99180781 27.48333947 1.0625 23.3125 C1.041875 22.219375 1.02125 21.12625 1 20 C-4.19424173 19.61043187 -8.43448905 20.55530993 -13 23 Z " fill="#363637" transform="translate(1219,1579)"/>
<path d="M0 0 C6.29127926 6.29127926 6.5 10.31809957 6.5 19.5 C-2.41 19.5 -11.32 19.5 -20.5 19.5 C-18.52047079 27.93887495 -18.52047079 27.93887495 -15.19140625 30.546875 C-12.10041467 31.64150772 -9.71208715 31.83279614 -6.4375 31.75 C-5.41527344 31.73453125 -4.39304687 31.7190625 -3.33984375 31.703125 C-0.91460841 31.52965562 1.17844322 31.19034302 3.5 30.5 C3.83 32.48 4.16 34.46 4.5 36.5 C-2.07096013 39.64701156 -10.88430246 39.82522474 -17.89453125 37.8125 C-22.97080505 35.15823919 -25.7335029 30.79949129 -27.5 25.5 C-28.11400471 17.57833267 -28.5914052 10.02028343 -23.5 3.5 C-17.08308471 -2.60389504 -8.08687684 -3.46580436 0 0 Z M-17.5 6.5 C-19.83974242 10.24554824 -19.83974242 10.24554824 -20.5 14.5 C-13.9 14.5 -7.3 14.5 -0.5 14.5 C-1.74967221 8.2883917 -1.74967221 8.2883917 -5.5 4.5 C-10.44817549 2.96056763 -13.24778396 3.57069562 -17.5 6.5 Z " fill="#363637" transform="translate(2442.5,1580.5)"/>
<path d="M0 0 C6.29127926 6.29127926 6.5 10.31809957 6.5 19.5 C-2.41 19.5 -11.32 19.5 -20.5 19.5 C-18.52047079 27.93887495 -18.52047079 27.93887495 -15.19140625 30.546875 C-12.10041467 31.64150772 -9.71208715 31.83279614 -6.4375 31.75 C-5.41527344 31.73453125 -4.39304687 31.7190625 -3.33984375 31.703125 C-0.91460841 31.52965562 1.17844322 31.19034302 3.5 30.5 C3.83 32.48 4.16 34.46 4.5 36.5 C-2.07096013 39.64701156 -10.88430246 39.82522474 -17.89453125 37.8125 C-22.97080505 35.15823919 -25.7335029 30.79949129 -27.5 25.5 C-28.11400471 17.57833267 -28.5914052 10.02028343 -23.5 3.5 C-17.08308471 -2.60389504 -8.08687684 -3.46580436 0 0 Z M-17.5 6.5 C-19.83974242 10.24554824 -19.83974242 10.24554824 -20.5 14.5 C-13.9 14.5 -7.3 14.5 -0.5 14.5 C-1.74967221 8.2883917 -1.74967221 8.2883917 -5.5 4.5 C-10.44817549 2.96056763 -13.24778396 3.57069562 -17.5 6.5 Z " fill="#363637" transform="translate(2055.5,1580.5)"/>
<path d="M0 0 C6.29127926 6.29127926 6.5 10.31809957 6.5 19.5 C-2.41 19.5 -11.32 19.5 -20.5 19.5 C-18.52047079 27.93887495 -18.52047079 27.93887495 -15.19140625 30.546875 C-12.10041467 31.64150772 -9.71208715 31.83279614 -6.4375 31.75 C-5.41527344 31.73453125 -4.39304687 31.7190625 -3.33984375 31.703125 C-0.91460841 31.52965562 1.17844322 31.19034302 3.5 30.5 C3.83 32.48 4.16 34.46 4.5 36.5 C-2.07096013 39.64701156 -10.88430246 39.82522474 -17.89453125 37.8125 C-22.97080505 35.15823919 -25.7335029 30.79949129 -27.5 25.5 C-28.11400471 17.57833267 -28.5914052 10.02028343 -23.5 3.5 C-17.08308471 -2.60389504 -8.08687684 -3.46580436 0 0 Z M-17.5 6.5 C-19.83974242 10.24554824 -19.83974242 10.24554824 -20.5 14.5 C-13.9 14.5 -7.3 14.5 -0.5 14.5 C-1.74967221 8.2883917 -1.74967221 8.2883917 -5.5 4.5 C-10.44817549 2.96056763 -13.24778396 3.57069562 -17.5 6.5 Z " fill="#363637" transform="translate(1738.5,1580.5)"/>
<path d="M0 0 C6.29127926 6.29127926 6.5 10.31809957 6.5 19.5 C-2.41 19.5 -11.32 19.5 -20.5 19.5 C-18.52047079 27.93887495 -18.52047079 27.93887495 -15.19140625 30.546875 C-12.10041467 31.64150772 -9.71208715 31.83279614 -6.4375 31.75 C-5.41527344 31.73453125 -4.39304687 31.7190625 -3.33984375 31.703125 C-0.91460841 31.52965562 1.17844322 31.19034302 3.5 30.5 C3.83 32.48 4.16 34.46 4.5 36.5 C-2.07096013 39.64701156 -10.88430246 39.82522474 -17.89453125 37.8125 C-22.97080505 35.15823919 -25.7335029 30.79949129 -27.5 25.5 C-28.11400471 17.57833267 -28.5914052 10.02028343 -23.5 3.5 C-17.08308471 -2.60389504 -8.08687684 -3.46580436 0 0 Z M-17.5 6.5 C-19.83974242 10.24554824 -19.83974242 10.24554824 -20.5 14.5 C-13.9 14.5 -7.3 14.5 -0.5 14.5 C-1.74967221 8.2883917 -1.74967221 8.2883917 -5.5 4.5 C-10.44817549 2.96056763 -13.24778396 3.57069562 -17.5 6.5 Z " fill="#363637" transform="translate(1310.5,1580.5)"/>
<path d="M0 0 C6.29127926 6.29127926 6.5 10.31809957 6.5 19.5 C-2.41 19.5 -11.32 19.5 -20.5 19.5 C-18.52047079 27.93887495 -18.52047079 27.93887495 -15.19140625 30.546875 C-12.10041467 31.64150772 -9.71208715 31.83279614 -6.4375 31.75 C-5.41527344 31.73453125 -4.39304687 31.7190625 -3.33984375 31.703125 C-0.91460841 31.52965562 1.17844322 31.19034302 3.5 30.5 C3.83 32.48 4.16 34.46 4.5 36.5 C-2.07096013 39.64701156 -10.88430246 39.82522474 -17.89453125 37.8125 C-22.97080505 35.15823919 -25.7335029 30.79949129 -27.5 25.5 C-28.11400471 17.57833267 -28.5914052 10.02028343 -23.5 3.5 C-17.08308471 -2.60389504 -8.08687684 -3.46580436 0 0 Z M-17.5 6.5 C-19.83974242 10.24554824 -19.83974242 10.24554824 -20.5 14.5 C-13.9 14.5 -7.3 14.5 -0.5 14.5 C-1.74967221 8.2883917 -1.74967221 8.2883917 -5.5 4.5 C-10.44817549 2.96056763 -13.24778396 3.57069562 -17.5 6.5 Z " fill="#363637" transform="translate(1094.5,1580.5)"/>
<path d="M0 0 C2.31 0 4.62 0 7 0 C7.01458252 0.69037354 7.02916504 1.38074707 7.04418945 2.09204102 C7.11910617 5.2493966 7.21562217 8.40574501 7.3125 11.5625 C7.33505859 12.64853516 7.35761719 13.73457031 7.38085938 14.85351562 C7.58270802 20.89062515 7.86632649 25.75274811 11 31 C14.93141248 32.31047083 16.98687552 32.42776367 20.8125 30.8125 C23.89115667 28.26161305 24.85745728 26.22896709 25.31884766 22.25097656 C25.35026855 21.22456055 25.38168945 20.19814453 25.4140625 19.140625 C25.45273438 18.02558594 25.49140625 16.91054687 25.53125 15.76171875 C25.5621875 14.60285156 25.593125 13.44398437 25.625 12.25 C25.66367188 11.07566406 25.70234375 9.90132812 25.7421875 8.69140625 C25.8363982 5.79442732 25.92201602 2.89745374 26 0 C28.31 0 30.62 0 33 0 C33.33 12.54 33.66 25.08 34 38 C31.69 38 29.38 38 27 38 C27 36.68 27 35.36 27 34 C26.32517578 34.54140625 26.32517578 34.54140625 25.63671875 35.09375 C20.65835278 38.68535671 16.69908309 39.78175288 10.55859375 39.4921875 C6.42712451 38.69743159 4.77972797 37.13610335 2 34 C-0.35570742 30.41044669 -0.23114879 27.27555714 -0.1953125 23.046875 C-0.1924826 22.38665344 -0.18965271 21.72643188 -0.18673706 21.04620361 C-0.17558415 18.94728103 -0.15048946 16.84879258 -0.125 14.75 C-0.11496384 13.32292285 -0.1058391 11.89583898 -0.09765625 10.46875 C-0.07566111 6.97902672 -0.04116536 3.48955577 0 0 Z " fill="#363637" transform="translate(1568,1580)"/>
<path d="M0 0 C2.31 0 4.62 0 7 0 C7.01458252 0.69037354 7.02916504 1.38074707 7.04418945 2.09204102 C7.11910617 5.2493966 7.21562217 8.40574501 7.3125 11.5625 C7.33505859 12.64853516 7.35761719 13.73457031 7.38085938 14.85351562 C7.58270802 20.89062515 7.86632649 25.75274811 11 31 C14.93141248 32.31047083 16.98687552 32.42776367 20.8125 30.8125 C23.89115667 28.26161305 24.85745728 26.22896709 25.31884766 22.25097656 C25.35026855 21.22456055 25.38168945 20.19814453 25.4140625 19.140625 C25.45273438 18.02558594 25.49140625 16.91054687 25.53125 15.76171875 C25.5621875 14.60285156 25.593125 13.44398437 25.625 12.25 C25.66367188 11.07566406 25.70234375 9.90132812 25.7421875 8.69140625 C25.8363982 5.79442732 25.92201602 2.89745374 26 0 C28.31 0 30.62 0 33 0 C33.33 12.54 33.66 25.08 34 38 C31.69 38 29.38 38 27 38 C27 36.68 27 35.36 27 34 C26.32517578 34.54140625 26.32517578 34.54140625 25.63671875 35.09375 C20.65835278 38.68535671 16.69908309 39.78175288 10.55859375 39.4921875 C6.42712451 38.69743159 4.77972797 37.13610335 2 34 C-0.35570742 30.41044669 -0.23114879 27.27555714 -0.1953125 23.046875 C-0.1924826 22.38665344 -0.18965271 21.72643188 -0.18673706 21.04620361 C-0.17558415 18.94728103 -0.15048946 16.84879258 -0.125 14.75 C-0.11496384 13.32292285 -0.1058391 11.89583898 -0.09765625 10.46875 C-0.07566111 6.97902672 -0.04116536 3.48955577 0 0 Z " fill="#363637" transform="translate(1429,1580)"/>
<path d="M0 0 C3.90634357 1.96867315 6.4517504 4.92584405 8 9 C8.22705078 12.20800781 8.22705078 12.20800781 8.1953125 15.953125 C8.1924826 16.61334656 8.18965271 17.27356812 8.18673706 17.95379639 C8.17558415 20.05271897 8.15048946 22.15120742 8.125 24.25 C8.11496384 25.67707715 8.1058391 27.10416102 8.09765625 28.53125 C8.07566111 32.02097328 8.04116536 35.51044423 8 39 C5.69 39 3.38 39 1 39 C0.98541748 38.30962646 0.97083496 37.61925293 0.95581055 36.90795898 C0.88089383 33.7506034 0.78437783 30.59425499 0.6875 27.4375 C0.66494141 26.35146484 0.64238281 25.26542969 0.61914062 24.14648438 C0.41717882 18.10599031 0.12820082 13.25274002 -3 8 C-6.34448288 6.49839552 -6.34448288 6.49839552 -10 7 C-12.678348 9.15432339 -14.46254419 10.92508839 -16 14 C-16.15344209 15.88472859 -16.24959571 17.77427874 -16.31640625 19.6640625 C-16.35830078 20.78554687 -16.40019531 21.90703125 -16.44335938 23.0625 C-16.50233398 24.8259375 -16.50233398 24.8259375 -16.5625 26.625 C-16.60568359 27.80835938 -16.64886719 28.99171875 -16.69335938 30.2109375 C-16.79967426 33.14050328 -16.90170642 36.07015588 -17 39 C-19.31 39 -21.62 39 -24 39 C-24.33 26.46 -24.66 13.92 -25 1 C-22.69 1 -20.38 1 -18 1 C-18 2.32 -18 3.64 -18 5 C-17.071875 4.175 -16.14375 3.35 -15.1875 2.5 C-10.42335012 -0.88913101 -5.64967691 -1.07207725 0 0 Z " fill="#363637" transform="translate(1692,1579)"/>
<path d="M0 0 C0.90105469 0.00902344 1.80210938 0.01804687 2.73046875 0.02734375 C3.41753906 0.03894531 4.10460938 0.05054688 4.8125 0.0625 C5.4375 2.4375 5.4375 2.4375 5.8125 5.0625 C5.1525 5.7225 4.4925 6.3825 3.8125 7.0625 C2.843125 7.041875 1.87375 7.02125 0.875 7 C-2.11549361 6.76337257 -2.11549361 6.76337257 -3.8046875 8.2734375 C-5.46876824 10.42640072 -5.87341592 12.08774604 -6.375 14.75 C-6.643125 16.173125 -6.91125 17.59625 -7.1875 19.0625 C-3.8875 19.0625 -0.5875 19.0625 2.8125 19.0625 C2.8125 21.0425 2.8125 23.0225 2.8125 25.0625 C-0.4875 25.0625 -3.7875 25.0625 -7.1875 25.0625 C-7.1875 35.6225 -7.1875 46.1825 -7.1875 57.0625 C-9.4975 57.0625 -11.8075 57.0625 -14.1875 57.0625 C-14.1875 46.5025 -14.1875 35.9425 -14.1875 25.0625 C-16.1675 25.0625 -18.1475 25.0625 -20.1875 25.0625 C-20.1875 23.0825 -20.1875 21.1025 -20.1875 19.0625 C-18.2075 19.0625 -16.2275 19.0625 -14.1875 19.0625 C-14.22230469 18.48242188 -14.25710938 17.90234375 -14.29296875 17.3046875 C-14.50483366 11.19087147 -13.70561621 7.10522376 -9.6875 2.25 C-6.6538776 -0.15161774 -3.69510074 -0.04798832 0 0 Z " fill="#363637" transform="translate(1855.1875,1560.9375)"/>
<path d="M0 0 C1.051875 -0.01417969 2.10375 -0.02835938 3.1875 -0.04296875 C6 0.1875 6 0.1875 9 2.1875 C8.34 4.1675 7.68 6.1475 7 8.1875 C6.01 7.8575 5.02 7.5275 4 7.1875 C2.60560336 7.12084624 1.20830125 7.10211801 -0.1875 7.125 C-1.445625 7.145625 -2.70375 7.16625 -4 7.1875 C-4.66 8.5075 -5.32 9.8275 -6 11.1875 C-3.58936318 13.99990962 -1.32245322 15.60634134 2 17.125 C5.72177925 18.93034068 7.99520505 20.42850947 10 24.1875 C10.75288132 28.05946108 10.89938604 31.53633708 8.9765625 35.06640625 C6.84803436 37.74319164 5.26069418 39.10060194 2 40.1875 C-0.14337765 40.30766328 -2.29079124 40.36281664 -4.4375 40.375 C-5.57058594 40.38917969 -6.70367188 40.40335938 -7.87109375 40.41796875 C-10.85457979 40.19821135 -12.49295423 39.74593386 -15 38.1875 C-14.505 35.2175 -14.505 35.2175 -14 32.1875 C-13.360625 32.3525 -12.72125 32.5175 -12.0625 32.6875 C-8.06959439 33.33940296 -4.03164292 33.65482207 0 33.1875 C0.66 32.5275 1.32 31.8675 2 31.1875 C2.1335457 28.69574707 2.1335457 28.69574707 1 26.1875 C-1.63664812 24.19868045 -1.63664812 24.19868045 -4.875 22.625 C-11.84732492 18.98763049 -11.84732492 18.98763049 -14 15.1875 C-14.83931263 8.6828271 -14.83931263 8.6828271 -12.98046875 5.37109375 C-9.10235784 0.50880968 -5.94421183 0.03642287 0 0 Z " fill="#363637" transform="translate(1801,1578.8125)"/>
<path d="M0 0 C1.051875 -0.01417969 2.10375 -0.02835938 3.1875 -0.04296875 C6 0.1875 6 0.1875 9 2.1875 C8.34 4.1675 7.68 6.1475 7 8.1875 C6.01 7.8575 5.02 7.5275 4 7.1875 C2.60560336 7.12084624 1.20830125 7.10211801 -0.1875 7.125 C-1.445625 7.145625 -2.70375 7.16625 -4 7.1875 C-4.66 8.5075 -5.32 9.8275 -6 11.1875 C-3.58936318 13.99990962 -1.32245322 15.60634134 2 17.125 C5.72177925 18.93034068 7.99520505 20.42850947 10 24.1875 C10.75288132 28.05946108 10.89938604 31.53633708 8.9765625 35.06640625 C6.84803436 37.74319164 5.26069418 39.10060194 2 40.1875 C-0.14337765 40.30766328 -2.29079124 40.36281664 -4.4375 40.375 C-5.57058594 40.38917969 -6.70367188 40.40335938 -7.87109375 40.41796875 C-10.85457979 40.19821135 -12.49295423 39.74593386 -15 38.1875 C-14.505 35.2175 -14.505 35.2175 -14 32.1875 C-13.360625 32.3525 -12.72125 32.5175 -12.0625 32.6875 C-8.06959439 33.33940296 -4.03164292 33.65482207 0 33.1875 C0.66 32.5275 1.32 31.8675 2 31.1875 C2.1335457 28.69574707 2.1335457 28.69574707 1 26.1875 C-1.63664812 24.19868045 -1.63664812 24.19868045 -4.875 22.625 C-11.84732492 18.98763049 -11.84732492 18.98763049 -14 15.1875 C-14.83931263 8.6828271 -14.83931263 8.6828271 -12.98046875 5.37109375 C-9.10235784 0.50880968 -5.94421183 0.03642287 0 0 Z " fill="#363637" transform="translate(1767,1578.8125)"/>
<path d="M0 0 C1.051875 -0.01417969 2.10375 -0.02835938 3.1875 -0.04296875 C6 0.1875 6 0.1875 9 2.1875 C8.34 4.1675 7.68 6.1475 7 8.1875 C6.01 7.8575 5.02 7.5275 4 7.1875 C2.60560336 7.12084624 1.20830125 7.10211801 -0.1875 7.125 C-1.445625 7.145625 -2.70375 7.16625 -4 7.1875 C-4.66 8.5075 -5.32 9.8275 -6 11.1875 C-3.58936318 13.99990962 -1.32245322 15.60634134 2 17.125 C5.72177925 18.93034068 7.99520505 20.42850947 10 24.1875 C10.75288132 28.05946108 10.89938604 31.53633708 8.9765625 35.06640625 C6.84803436 37.74319164 5.26069418 39.10060194 2 40.1875 C-0.14337765 40.30766328 -2.29079124 40.36281664 -4.4375 40.375 C-5.57058594 40.38917969 -6.70367188 40.40335938 -7.87109375 40.41796875 C-10.85457979 40.19821135 -12.49295423 39.74593386 -15 38.1875 C-14.505 35.2175 -14.505 35.2175 -14 32.1875 C-13.360625 32.3525 -12.72125 32.5175 -12.0625 32.6875 C-8.06959439 33.33940296 -4.03164292 33.65482207 0 33.1875 C0.66 32.5275 1.32 31.8675 2 31.1875 C2.1335457 28.69574707 2.1335457 28.69574707 1 26.1875 C-1.63664812 24.19868045 -1.63664812 24.19868045 -4.875 22.625 C-11.84732492 18.98763049 -11.84732492 18.98763049 -14 15.1875 C-14.83931263 8.6828271 -14.83931263 8.6828271 -12.98046875 5.37109375 C-9.10235784 0.50880968 -5.94421183 0.03642287 0 0 Z " fill="#363637" transform="translate(1627,1578.8125)"/>
<path d="M0 0 C0 2.97 0 5.94 0 9 C3.3 9 6.6 9 10 9 C10 10.98 10 12.96 10 15 C6.7 15 3.4 15 0 15 C0.11387307 18.58400513 0.24062831 22.16675485 0.375 25.75 C0.4059375 26.76578125 0.436875 27.7815625 0.46875 28.828125 C0.50742188 29.8078125 0.54609375 30.7875 0.5859375 31.796875 C0.6173584 32.69760742 0.6487793 33.59833984 0.68115234 34.52636719 C1.01137256 37.08822875 1.70951673 38.78127437 3 41 C5.31 41 7.62 41 10 41 C10 43.31 10 45.62 10 48 C8.08458862 48.10841951 6.16740227 48.18578079 4.25 48.25 C3.18265625 48.29640625 2.1153125 48.3428125 1.015625 48.390625 C-2 48 -2 48 -4.328125 46.171875 C-7.14656635 42.5105353 -7.11948532 39.49448998 -7.09765625 35.01953125 C-7.09443359 33.85615234 -7.09121094 32.69277344 -7.08789062 31.49414062 C-7.07951172 30.27919922 -7.07113281 29.06425781 -7.0625 27.8125 C-7.05798828 26.58595703 -7.05347656 25.35941406 -7.04882812 24.09570312 C-7.03703065 21.06375332 -7.02056921 18.03190094 -7 15 C-8.98 15 -10.96 15 -13 15 C-13 13.02 -13 11.04 -13 9 C-11.02 9 -9.04 9 -7 9 C-7 6.36 -7 3.72 -7 1 C-4 0 -4 0 0 0 Z " fill="#363637" transform="translate(2233,1571)"/>
<path d="M0 0 C0 2.97 0 5.94 0 9 C3.3 9 6.6 9 10 9 C10 10.98 10 12.96 10 15 C6.7 15 3.4 15 0 15 C0.11387307 18.58400513 0.24062831 22.16675485 0.375 25.75 C0.4059375 26.76578125 0.436875 27.7815625 0.46875 28.828125 C0.50742188 29.8078125 0.54609375 30.7875 0.5859375 31.796875 C0.6173584 32.69760742 0.6487793 33.59833984 0.68115234 34.52636719 C1.01137256 37.08822875 1.70951673 38.78127437 3 41 C5.31 41 7.62 41 10 41 C10 43.31 10 45.62 10 48 C8.08458862 48.10841951 6.16740227 48.18578079 4.25 48.25 C3.18265625 48.29640625 2.1153125 48.3428125 1.015625 48.390625 C-2 48 -2 48 -4.328125 46.171875 C-7.14656635 42.5105353 -7.11948532 39.49448998 -7.09765625 35.01953125 C-7.09443359 33.85615234 -7.09121094 32.69277344 -7.08789062 31.49414062 C-7.07951172 30.27919922 -7.07113281 29.06425781 -7.0625 27.8125 C-7.05798828 26.58595703 -7.05347656 25.35941406 -7.04882812 24.09570312 C-7.03703065 21.06375332 -7.02056921 18.03190094 -7 15 C-8.98 15 -10.96 15 -13 15 C-13 13.02 -13 11.04 -13 9 C-11.02 9 -9.04 9 -7 9 C-7 6.36 -7 3.72 -7 1 C-4 0 -4 0 0 0 Z " fill="#363637" transform="translate(1965,1571)"/>
<path d="M0 0 C2.31 0 4.62 0 7 0 C7 18.48 7 36.96 7 56 C4.69 56 2.38 56 0 56 C0 37.52 0 19.04 0 0 Z " fill="#363637" transform="translate(2293,1562)"/>
<path d="M0 0 C0 2.31 0 4.62 0 7 C-1.6396875 7.37125 -1.6396875 7.37125 -3.3125 7.75 C-7.10530855 9.03569781 -8.13843964 9.58713933 -10 13 C-10.99455909 15.98367726 -11.19559632 18.2004192 -11.31640625 21.32421875 C-11.35830078 22.35224609 -11.40019531 23.38027344 -11.44335938 24.43945312 C-11.48267578 25.51130859 -11.52199219 26.58316406 -11.5625 27.6875 C-11.60568359 28.77095703 -11.64886719 29.85441406 -11.69335938 30.97070312 C-11.79946838 33.64700791 -11.90152361 36.32340526 -12 39 C-14.31 39 -16.62 39 -19 39 C-19.33 26.46 -19.66 13.92 -20 1 C-17.69 1 -15.38 1 -13 1 C-12.67 2.32 -12.34 3.64 -12 5 C-11.13375 4.175 -10.2675 3.35 -9.375 2.5 C-6.25207583 -0.13961448 -4.12269101 -0.49079655 0 0 Z " fill="#363637" transform="translate(1930,1579)"/>
<path d="M0 0 C0 2.31 0 4.62 0 7 C-1.6396875 7.37125 -1.6396875 7.37125 -3.3125 7.75 C-7.10530855 9.03569781 -8.13843964 9.58713933 -10 13 C-10.99455909 15.98367726 -11.19559632 18.2004192 -11.31640625 21.32421875 C-11.35830078 22.35224609 -11.40019531 23.38027344 -11.44335938 24.43945312 C-11.48267578 25.51130859 -11.52199219 26.58316406 -11.5625 27.6875 C-11.60568359 28.77095703 -11.64886719 29.85441406 -11.69335938 30.97070312 C-11.79946838 33.64700791 -11.90152361 36.32340526 -12 39 C-14.31 39 -16.62 39 -19 39 C-19.33 26.46 -19.66 13.92 -20 1 C-17.69 1 -15.38 1 -13 1 C-12.67 2.32 -12.34 3.64 -12 5 C-11.13375 4.175 -10.2675 3.35 -9.375 2.5 C-6.25207583 -0.13961448 -4.12269101 -0.49079655 0 0 Z " fill="#363637" transform="translate(1495,1579)"/>
<path d="M0 0 C2.31 0 4.62 0 7 0 C7 12.54 7 25.08 7 38 C4.69 38 2.38 38 0 38 C0 25.46 0 12.92 0 0 Z " fill="#363637" transform="translate(2204,1580)"/>
<path d="M0 0 C2.31 0 4.62 0 7 0 C7 12.54 7 25.08 7 38 C4.69 38 2.38 38 0 38 C0 25.46 0 12.92 0 0 Z " fill="#363637" transform="translate(2138,1580)"/>
<path d="M0 0 C2.31 0 4.62 0 7 0 C7 12.54 7 25.08 7 38 C4.69 38 2.38 38 0 38 C0 25.46 0 12.92 0 0 Z " fill="#363637" transform="translate(1648,1580)"/>
<path d="M0 0 C2.31 0 4.62 0 7 0 C7 12.54 7 25.08 7 38 C4.69 38 2.38 38 0 38 C0 25.46 0 12.92 0 0 Z " fill="#363637" transform="translate(1112,1580)"/>
<path d="M0 0 C3.0625 0.1875 3.0625 0.1875 5.0625 2.1875 C4.6875 5.3125 4.6875 5.3125 4.0625 8.1875 C1.1875 8.8125 1.1875 8.8125 -1.9375 9.1875 C-3.9375 7.1875 -3.9375 7.1875 -4.125 4.125 C-3.8775 0.2475 -3.8775 0.2475 0 0 Z " fill="#363637" transform="translate(2206.9375,1564.8125)"/>
<path d="M0 0 C3.0625 0.1875 3.0625 0.1875 5.0625 2.1875 C4.6875 5.3125 4.6875 5.3125 4.0625 8.1875 C1.1875 8.8125 1.1875 8.8125 -1.9375 9.1875 C-3.9375 7.1875 -3.9375 7.1875 -4.125 4.125 C-3.8775 0.2475 -3.8775 0.2475 0 0 Z " fill="#363637" transform="translate(2140.9375,1564.8125)"/>
<path d="M0 0 C3.0625 0.1875 3.0625 0.1875 5.0625 2.1875 C4.6875 5.3125 4.6875 5.3125 4.0625 8.1875 C1.1875 8.8125 1.1875 8.8125 -1.9375 9.1875 C-3.9375 7.1875 -3.9375 7.1875 -4.125 4.125 C-3.8775 0.2475 -3.8775 0.2475 0 0 Z " fill="#363637" transform="translate(1650.9375,1564.8125)"/>
<path d="M0 0 C3.0625 0.1875 3.0625 0.1875 5.0625 2.1875 C4.6875 5.3125 4.6875 5.3125 4.0625 8.1875 C1.1875 8.8125 1.1875 8.8125 -1.9375 9.1875 C-3.9375 7.1875 -3.9375 7.1875 -4.125 4.125 C-3.8775 0.2475 -3.8775 0.2475 0 0 Z " fill="#363637" transform="translate(1114.9375,1564.8125)"/>
<path d="" fill="#466DB5" transform="translate(0,0)"/>
<path d="" fill="#466DB5" transform="translate(0,0)"/>
<path d="" fill="#466DB5" transform="translate(0,0)"/>
<path d="" fill="#466DB5" transform="translate(0,0)"/>
<path d="" fill="#466DB5" transform="translate(0,0)"/>
<path d="" fill="#466DB5" transform="translate(0,0)"/>
</svg>
